if (_typeface_js && _typeface_js.loadFace) _typeface_js.loadFace({"glyphs":{"S":{"x_min":45.5625,"x_max":851.125,"ha":897,"o":"m 677 863 b 788 1029 716 863 788 990 b 444 1176 788 1069 645 1176 b 83 861 162 1176 83 977 b 420 511 83 743 116 605 b 626 343 501 486 626 444 b 428 211 626 256 534 211 b 130 493 130 211 153 493 b 45 305 116 493 45 423 b 442 -20 45 84 245 -20 b 851 338 735 -20 851 177 b 499 708 851 470 791 611 b 285 873 423 734 285 773 b 444 988 285 954 374 988 b 677 863 588 988 642 863 "},"¦":{"x_min":143.0625,"x_max":327.78125,"ha":474,"o":"m 143 1183 l 143 570 l 327 570 l 327 1183 l 143 1183 m 143 306 l 143 -305 l 327 -305 l 327 306 l 143 306 "},"/":{"x_min":63.890625,"x_max":668.0625,"ha":732,"o":"m 630 1045 b 668 1138 650 1090 668 1122 b 611 1176 668 1168 631 1176 b 440 1004 519 1176 502 1168 l 108 138 b 63 1 97 111 63 27 b 93 -20 63 -13 79 -20 b 205 81 166 -20 190 48 l 630 1045 "},"y":{"x_min":36.109375,"x_max":676.75,"ha":713,"o":"m 36 31 b 69 -20 36 0 37 -20 b 676 780 375 -20 688 373 b 654 888 676 840 680 884 l 530 888 b 480 868 515 888 480 893 b 495 718 480 845 495 787 b 402 444 495 611 458 444 b 238 759 375 444 238 597 b 251 863 238 801 251 844 b 202 888 251 893 220 888 l 88 888 b 36 823 34 888 36 886 b 277 280 36 437 277 338 b 76 211 277 262 236 211 b 36 154 38 211 36 170 l 36 31 "},"≈":{"x_min":54,"x_max":749.828125,"ha":806,"o":"m 674 726 b 548 615 637 663 604 615 b 424 671 508 615 476 638 b 270 726 390 692 342 726 b 54 562 176 726 95 653 l 129 495 b 259 605 163 548 195 605 b 383 552 306 605 338 583 b 545 493 449 509 488 493 b 749 659 630 493 705 563 l 674 726 m 674 432 b 547 321 635 368 605 321 b 424 377 505 321 472 350 b 270 432 390 398 344 432 b 54 266 176 432 95 359 l 129 200 b 259 312 163 254 195 312 b 383 258 305 312 337 289 b 544 199 448 217 488 199 b 749 365 631 199 705 271 l 674 432 "},"Ž":{"x_min":22.21875,"x_max":838.890625,"ha":861,"o":"m 743 0 b 805 20 790 0 805 8 b 697 279 805 27 723 279 b 468 177 666 279 612 177 b 333 262 408 177 333 201 b 838 1111 333 437 838 944 b 784 1155 838 1143 808 1155 l 145 1155 b 90 1143 136 1155 90 1161 b 184 912 90 1129 150 912 b 391 991 211 912 245 991 b 477 931 431 991 477 980 b 22 58 477 834 22 384 b 115 0 22 -8 61 0 l 743 0 m 327 1476 b 298 1494 320 1481 311 1494 b 163 1440 259 1494 163 1447 b 181 1413 163 1429 173 1420 l 331 1265 b 444 1206 373 1222 384 1206 b 527 1250 490 1206 495 1216 l 666 1398 b 697 1445 677 1409 697 1429 b 609 1494 697 1468 622 1494 b 550 1452 587 1494 565 1468 l 498 1397 b 452 1362 490 1387 466 1362 b 411 1394 440 1362 418 1387 l 327 1476 "},"Á":{"x_min":45.828125,"x_max":923.609375,"ha":969,"o":"m 822 0 b 923 333 863 0 923 -37 b 519 1176 923 977 565 1176 b 45 305 458 1176 45 900 b 136 0 45 125 65 0 l 334 0 b 361 9 352 0 361 1 b 270 258 361 30 270 148 b 598 438 270 416 472 438 b 720 352 661 438 720 415 b 613 16 720 194 613 55 b 666 0 613 -4 654 0 l 822 0 m 525 938 b 680 672 577 938 680 758 b 609 626 680 633 658 626 b 327 590 487 626 352 590 b 301 616 311 590 301 600 b 525 938 301 718 450 938 m 438 1266 b 422 1230 434 1259 422 1240 b 440 1220 422 1222 431 1220 b 725 1476 525 1212 725 1443 b 634 1508 725 1518 658 1508 b 544 1463 572 1508 572 1515 l 438 1266 "},"g":{"x_min":34.71875,"x_max":748.609375,"ha":772,"o":"m 391 494 b 256 636 309 494 256 554 b 391 778 256 725 316 778 b 526 636 466 778 526 725 b 391 494 526 547 466 494 m 391 910 b 93 618 205 910 93 800 b 193 373 93 468 193 407 b 34 157 193 334 34 319 b 234 -20 34 43 125 -20 b 379 14 287 -20 334 -2 b 509 48 425 32 468 48 b 623 -20 587 48 588 -20 b 720 171 665 -20 720 134 b 573 251 720 221 605 251 b 269 182 443 251 327 182 b 222 229 244 182 222 203 b 391 316 222 269 315 316 b 690 614 598 316 690 469 b 619 833 690 764 619 791 b 748 906 619 906 748 864 b 634 1027 748 928 672 1027 b 477 899 579 1027 541 899 b 450 905 473 899 463 902 b 391 910 434 907 415 910 "},"²":{"x_min":22.671875,"x_max":462.953125,"ha":486,"o":"m 186 643 b 462 965 186 683 462 758 b 246 1147 462 1083 368 1147 b 36 1004 118 1147 36 1047 b 100 904 36 995 92 904 b 249 1015 118 904 154 1015 b 324 943 304 1015 324 990 b 22 487 324 802 22 773 b 57 443 22 465 28 443 b 174 465 79 443 129 465 b 250 454 194 465 222 459 b 329 443 279 448 308 443 b 461 584 386 443 461 501 b 411 711 461 663 418 711 b 415 673 401 711 415 691 b 351 620 415 631 386 620 b 261 637 328 620 290 637 b 203 630 232 637 210 630 b 186 643 194 630 186 634 "},"–":{"x_min":-34.71875,"x_max":729.171875,"ha":694,"o":"m 651 356 b 729 495 705 356 729 481 b 665 520 729 527 687 520 l 43 520 b -34 381 -11 520 -34 395 b 29 356 -34 350 6 356 l 651 356 "},"ë":{"x_min":29.171875,"x_max":683.328125,"ha":729,"o":"m 380 -20 b 683 256 547 -20 683 80 b 658 340 683 268 679 340 b 411 166 638 340 638 166 b 236 279 341 166 236 213 b 683 659 236 423 683 361 b 401 909 683 823 554 909 b 29 406 215 909 29 743 b 380 -20 29 184 131 -20 m 394 745 b 511 640 447 745 511 708 b 241 513 511 569 258 513 b 216 544 223 513 216 529 b 394 745 216 625 281 745 m 523 983 b 647 1094 590 983 647 1022 b 523 1205 647 1166 590 1205 b 400 1094 456 1205 400 1166 b 523 983 400 1022 456 983 m 205 983 b 329 1094 272 983 329 1022 b 205 1205 329 1166 272 1205 b 81 1094 138 1205 81 1166 b 205 983 81 1022 138 983 "},"ƒ":{"x_min":62.359375,"x_max":742.921875,"ha":806,"o":"m 184 729 b 201 686 184 704 183 686 b 283 708 230 686 258 708 b 329 609 338 708 329 651 b 202 211 329 513 312 211 b 148 233 173 211 167 233 b 62 30 97 233 62 51 b 260 -20 62 -9 165 -20 b 516 581 387 -20 516 125 b 590 708 516 636 513 708 b 667 690 615 708 642 690 b 724 818 697 690 724 784 b 684 861 724 837 709 861 b 576 840 624 861 594 840 b 541 876 555 840 541 856 b 606 969 541 908 567 969 b 674 961 622 969 655 961 b 742 1109 698 961 742 1088 b 562 1147 742 1150 644 1147 b 377 1002 490 1147 404 1088 b 288 840 358 940 358 840 b 184 729 201 840 184 751 "},"Î":{"x_min":-12.5,"x_max":520.828125,"ha":454,"o":"m 331 0 l 359 0 b 380 15 372 0 380 1 b 311 619 380 34 311 263 b 384 1133 311 887 384 1119 b 331 1155 384 1159 350 1155 l 181 1155 b 86 494 158 1155 86 1180 b 162 0 86 -26 127 0 l 331 0 m 352 1456 b 240 1515 311 1500 300 1515 b 156 1472 194 1515 188 1505 l 18 1323 b -12 1276 6 1312 -12 1293 b 75 1227 -12 1254 62 1227 b 134 1269 97 1227 119 1254 l 186 1325 b 231 1359 194 1334 218 1359 b 273 1327 244 1359 266 1334 l 356 1245 b 386 1227 363 1240 373 1227 b 520 1281 425 1227 520 1275 b 502 1308 520 1293 511 1301 l 352 1456 "},"e":{"x_min":29.171875,"x_max":683.328125,"ha":729,"o":"m 380 -20 b 683 256 547 -20 683 80 b 658 340 683 268 679 340 b 411 166 638 340 638 166 b 236 279 341 166 236 213 b 683 659 236 423 683 361 b 401 909 683 823 554 909 b 29 406 215 909 29 743 b 380 -20 29 184 131 -20 m 394 745 b 511 640 447 745 511 708 b 241 513 511 569 258 513 b 216 544 223 513 216 529 b 394 745 216 625 281 745 "},"Ã":{"x_min":46,"x_max":923.78125,"ha":969,"o":"m 822 0 b 923 332 864 0 923 -37 b 519 1176 923 977 565 1176 b 46 305 458 1176 46 899 b 136 0 46 124 65 0 l 334 0 b 361 9 352 0 361 1 b 271 257 361 30 271 148 b 598 438 271 416 472 438 b 721 352 661 438 721 414 b 614 16 721 194 614 55 b 666 0 614 -4 654 0 l 822 0 m 525 938 b 680 671 577 938 680 757 b 609 626 680 632 658 626 b 327 589 487 626 352 589 b 301 616 311 589 301 599 b 525 938 301 717 450 938 m 376 1473 b 200 1310 257 1473 200 1371 b 241 1291 200 1288 227 1291 b 298 1341 248 1291 243 1341 b 414 1309 330 1341 369 1326 b 565 1276 459 1292 509 1276 b 769 1445 755 1276 769 1439 b 736 1463 769 1452 762 1463 b 643 1406 707 1463 726 1406 b 482 1451 590 1406 536 1430 b 376 1473 452 1463 409 1473 "},"J":{"x_min":0,"x_max":486.109375,"ha":556,"o":"m 231 1155 b 190 1137 215 1155 190 1161 b 261 523 190 1120 261 904 b 176 211 261 169 218 211 b 87 309 133 211 109 309 b 0 91 56 309 0 156 b 206 -20 0 55 98 -20 b 486 445 227 -20 486 -59 b 413 1155 486 1194 441 1155 l 231 1155 "},"»":{"x_min":69.4375,"x_max":775,"ha":844,"o":"m 250 738 b 206 780 241 751 226 780 b 137 744 193 780 175 768 b 69 684 95 718 69 705 b 104 625 69 663 90 641 l 223 473 b 244 438 230 465 244 450 b 223 404 244 427 230 412 l 104 252 b 69 193 90 236 69 213 b 137 133 69 172 95 159 b 206 97 175 109 193 97 b 250 138 226 97 241 126 l 401 368 b 427 438 416 388 427 406 b 401 509 427 470 416 488 l 250 738 m 597 738 b 554 780 588 751 573 780 b 484 744 540 780 522 768 b 416 684 443 718 416 705 b 451 625 416 663 437 641 l 570 473 b 591 438 577 465 591 450 b 570 404 591 427 577 412 l 451 252 b 416 193 437 236 416 213 b 484 133 416 172 443 159 b 554 97 522 109 540 97 b 597 138 573 97 588 126 l 748 368 b 775 438 763 388 775 406 b 748 509 775 470 763 488 l 597 738 "},"∆":{"x_min":38.953125,"x_max":918.125,"ha":958,"o":"m 38 0 l 918 0 l 918 133 l 613 1147 l 358 1147 l 38 129 l 38 0 m 257 180 l 402 616 b 476 887 425 711 465 827 l 480 887 b 558 593 494 818 537 683 l 693 180 l 257 180 "},"©":{"x_min":45.8125,"x_max":1243.03125,"ha":1289,"o":"m 644 219 b 891 415 770 219 891 291 b 872 505 891 438 884 505 b 686 383 863 505 833 383 b 508 591 608 383 508 431 b 677 806 508 695 545 806 b 780 729 793 806 743 729 b 870 818 837 729 870 756 b 673 938 870 906 752 938 b 344 559 454 938 344 740 b 644 219 344 391 440 219 m 644 -20 b 1243 577 1024 -20 1243 197 b 644 1176 1243 958 1024 1176 b 45 577 263 1176 45 958 b 644 -20 45 197 263 -20 m 644 111 b 177 577 352 111 177 286 b 644 1044 177 869 352 1044 b 1111 577 936 1044 1111 869 b 644 111 1111 286 936 111 "},"˘":{"x_min":41.671875,"x_max":513.890625,"ha":556,"o":"m 291 1001 b 513 1154 440 1001 513 1112 b 486 1205 513 1195 509 1205 b 418 1173 458 1205 433 1187 b 319 1133 398 1156 363 1133 b 220 1173 275 1133 241 1151 b 125 1205 206 1188 173 1205 b 41 1154 80 1205 41 1188 b 291 1001 41 1091 129 1001 "},"≥":{"x_min":75,"x_max":736.109375,"ha":806,"o":"m 83 987 l 83 840 l 616 575 l 616 572 l 83 305 l 83 158 l 734 504 l 734 641 l 83 987 m 736 -27 l 736 101 l 75 101 l 75 -27 l 736 -27 "},"ò":{"x_min":29.171875,"x_max":726.390625,"ha":756,"o":"m 377 -20 b 726 445 537 -20 726 119 b 377 909 726 669 619 909 b 29 445 136 909 29 669 b 377 -20 29 119 218 -20 m 377 211 b 201 480 237 211 201 369 b 377 745 201 590 240 745 b 554 480 515 745 554 590 b 377 211 554 369 518 211 m 402 1195 b 312 1240 375 1247 375 1240 b 222 1208 288 1240 222 1250 b 506 952 222 1175 422 944 b 525 962 515 952 525 954 b 508 998 525 972 512 991 l 402 1195 "},"^":{"x_min":60,"x_max":753,"ha":814,"o":"m 753 502 l 471 1120 l 341 1120 l 60 502 l 198 502 l 404 980 l 607 502 l 753 502 "},"«":{"x_min":69.4375,"x_max":775,"ha":844,"o":"m 443 509 b 416 438 427 488 416 470 b 443 368 416 406 427 388 l 594 138 b 637 97 602 126 618 97 b 706 133 651 97 669 109 b 775 193 748 159 775 172 b 740 252 775 213 754 236 l 620 404 b 600 438 613 412 600 427 b 620 473 600 450 613 465 l 740 625 b 775 684 754 641 775 663 b 706 744 775 705 748 718 b 637 780 669 768 651 780 b 594 738 618 780 602 751 l 443 509 m 95 509 b 69 438 80 488 69 470 b 95 368 69 406 80 388 l 247 138 b 290 97 255 126 270 97 b 359 133 304 97 322 109 b 427 193 401 159 427 172 b 393 252 427 213 406 236 l 273 404 b 252 438 266 412 252 427 b 273 473 252 450 266 465 l 393 625 b 427 684 406 641 427 663 b 359 744 427 705 401 718 b 290 780 322 768 304 780 b 247 738 270 780 255 751 l 95 509 "},"D":{"x_min":69.4375,"x_max":895.828125,"ha":931,"o":"m 505 0 b 895 441 786 0 895 201 b 401 1155 895 962 577 1155 l 165 1155 b 69 494 141 1155 69 1180 b 145 0 69 -26 111 0 l 505 0 m 286 725 b 402 991 286 812 305 991 b 670 498 493 991 670 841 b 455 177 670 248 530 177 b 286 526 377 177 286 213 l 286 725 "},"∙":{"x_min":45.828125,"x_max":356.9375,"ha":403,"o":"m 200 313 b 356 466 286 313 356 380 b 198 619 356 552 286 619 b 45 468 115 619 45 551 b 200 313 45 383 113 313 "},"ł":{"x_min":-41.671875,"x_max":389.65625,"ha":357,"o":"m 265 0 b 316 17 280 0 316 -6 b 263 604 316 35 263 222 b 388 868 263 868 388 729 b 368 910 388 886 395 910 b 305 875 347 910 319 875 b 280 919 291 875 280 897 b 322 1158 280 942 322 1144 b 265 1185 322 1189 280 1185 l 133 1185 b 83 868 94 1185 83 968 b 25 776 80 833 66 778 b -41 674 -34 775 -41 687 b -12 632 -41 646 -27 632 b 55 667 13 632 41 667 b 76 497 76 667 77 650 b 119 0 76 465 70 0 l 265 0 "},"ÿ":{"x_min":36.109375,"x_max":676.75,"ha":713,"o":"m 36 31 b 69 -20 36 0 37 -20 b 676 780 375 -20 688 373 b 654 888 676 840 680 884 l 530 888 b 480 868 515 888 480 893 b 495 718 480 845 495 787 b 402 444 495 611 458 444 b 238 759 375 444 238 597 b 251 863 238 801 251 844 b 202 888 251 893 220 888 l 88 888 b 36 823 34 888 36 886 b 277 280 36 437 277 338 b 76 211 277 262 236 211 b 36 154 38 211 36 170 l 36 31 m 515 983 b 638 1094 581 983 638 1022 b 515 1205 638 1166 581 1205 b 391 1094 448 1205 391 1166 b 515 983 391 1022 448 983 m 197 983 b 320 1094 263 983 320 1022 b 197 1205 320 1166 263 1205 b 73 1094 130 1205 73 1166 b 197 983 73 1022 130 983 "},"Ł":{"x_min":-59.796875,"x_max":752.78125,"ha":765,"o":"m 527 888 b 388 840 484 888 437 840 b 341 868 361 840 341 848 b 433 1141 341 930 433 1083 b 406 1155 433 1156 416 1155 l 186 1155 b 116 830 162 1155 116 895 b 22 708 116 772 90 708 b -59 548 -40 708 -59 575 b -34 513 -59 534 -62 513 b 41 548 6 513 15 548 b 76 512 55 548 76 541 b 69 327 76 494 69 375 b 127 0 76 45 54 -2 l 693 0 b 752 20 709 0 752 -6 b 672 295 752 27 698 295 b 431 177 637 295 559 177 b 272 415 355 177 272 223 b 311 658 272 480 273 658 b 466 705 325 658 390 705 b 555 861 508 705 555 844 b 527 888 555 881 544 888 "},"í":{"x_min":63.890625,"x_max":383.328125,"ha":369,"o":"m 231 0 b 305 36 263 0 305 -8 b 251 613 305 48 251 263 b 268 868 251 765 268 816 b 208 888 268 884 266 888 l 131 888 b 63 459 86 888 63 934 b 137 0 63 -29 69 0 l 231 0 m 97 998 b 80 962 93 991 80 972 b 98 952 80 954 90 952 b 383 1208 183 944 383 1175 b 293 1240 383 1250 316 1240 b 202 1195 230 1240 230 1247 l 97 998 "},"ˆ":{"x_min":115.28125,"x_max":648.609375,"ha":764,"o":"m 480 1188 b 368 1247 438 1231 427 1247 b 284 1204 322 1247 316 1237 l 145 1055 b 115 1008 134 1044 115 1025 b 202 959 115 986 190 959 b 262 1001 225 959 247 986 l 313 1056 b 359 1091 322 1066 345 1091 b 401 1059 372 1091 394 1066 l 484 977 b 513 959 491 972 501 959 b 648 1013 552 959 648 1006 b 630 1040 648 1025 638 1033 l 480 1188 "},"w":{"x_min":29.171875,"x_max":973.609375,"ha":1003,"o":"m 831 889 b 783 868 813 889 783 893 b 801 677 783 832 801 769 b 698 273 801 470 731 273 b 602 693 669 273 602 433 b 615 869 602 765 615 852 b 584 889 615 890 597 887 l 447 889 b 426 866 431 889 426 883 b 434 718 426 844 434 768 b 320 273 438 366 344 273 b 231 695 297 273 231 458 b 247 868 231 820 247 855 b 215 889 247 889 231 887 l 105 889 b 29 737 51 889 29 905 b 301 -20 29 279 258 -20 b 452 194 340 -20 437 162 b 488 243 458 205 475 243 b 537 165 505 243 533 173 b 666 -20 554 130 627 -20 b 973 751 700 -20 973 247 b 908 889 973 891 963 889 l 831 889 "},"$":{"x_min":29.671875,"x_max":776.890625,"ha":806,"o":"m 438 412 b 465 466 438 440 435 466 b 589 341 510 466 589 395 b 478 231 589 281 544 231 b 438 285 438 231 438 253 l 438 412 m 338 819 b 313 727 338 778 333 727 b 217 846 286 727 217 783 b 310 965 217 903 247 965 b 338 896 344 965 338 937 l 338 819 m 338 298 b 300 231 338 270 342 231 b 121 313 208 231 174 313 b 49 94 96 313 49 126 b 272 0 49 67 194 0 b 343 -60 319 0 342 -14 b 392 -83 344 -90 365 -83 b 443 -55 421 -83 443 -90 b 486 0 443 -22 456 0 b 776 330 649 0 776 133 b 508 663 776 501 671 606 b 438 774 442 688 438 709 l 438 895 b 467 965 438 917 432 965 b 614 908 546 965 581 908 b 689 1081 633 908 689 1070 b 522 1142 689 1113 544 1138 b 432 1181 481 1149 432 1144 b 407 1215 432 1202 435 1215 b 335 1187 382 1215 336 1217 b 292 1140 333 1151 318 1145 b 29 834 129 1109 29 984 b 269 538 29 683 132 588 b 338 427 340 513 338 498 l 338 298 "},"∫":{"x_min":43.0625,"x_max":583.328125,"ha":629,"o":"m 583 1381 b 487 1397 563 1388 527 1397 b 297 1320 416 1397 343 1372 b 205 950 230 1245 205 1141 b 226 159 205 668 226 463 b 191 -83 226 22 215 -45 b 130 -112 176 -105 152 -112 b 68 -97 102 -112 83 -104 l 43 -258 b 162 -283 65 -270 109 -283 b 373 -159 243 -283 330 -251 b 423 165 406 -91 423 18 b 402 930 423 463 402 663 b 438 1195 402 1059 409 1154 b 512 1237 458 1226 483 1237 b 562 1225 533 1237 548 1231 l 583 1381 "},"\\":{"x_min":14,"x_max":489,"ha":503,"o":"m 489 -68 l 147 1184 l 14 1184 l 354 -68 l 489 -68 "},"Ì":{"x_min":29.171875,"x_max":384.71875,"ha":454,"o":"m 331 0 l 359 0 b 380 15 372 0 380 1 b 311 619 380 34 311 263 b 384 1133 311 887 384 1119 b 331 1155 384 1159 350 1155 l 181 1155 b 86 494 158 1155 86 1180 b 162 0 86 -26 127 0 l 331 0 m 209 1463 b 119 1508 181 1515 181 1508 b 29 1476 95 1508 29 1518 b 313 1220 29 1443 229 1212 b 331 1230 322 1220 331 1222 b 315 1266 331 1240 319 1259 l 209 1463 "},"µ":{"x_min":64.109375,"x_max":708.5625,"ha":772,"o":"m 519 888 b 472 872 504 888 472 890 b 521 616 472 850 522 747 b 369 413 518 433 415 413 b 251 586 323 413 251 445 b 315 868 251 722 315 847 b 259 888 315 895 278 888 l 132 888 b 64 565 73 888 64 681 l 64 226 b 126 0 64 -12 83 0 l 240 0 b 284 19 255 0 284 -2 b 258 159 284 34 258 111 b 391 226 258 229 305 226 b 482 280 436 226 466 280 b 565 188 543 280 439 188 b 708 466 665 188 708 165 b 648 888 708 640 707 888 l 519 888 "},"Ç":{"x_min":34.265625,"x_max":849.546875,"ha":896,"o":"m 257 -168 b 418 -266 257 -191 418 -176 b 307 -355 418 -315 307 -330 b 357 -373 307 -368 324 -373 b 666 -211 455 -373 666 -325 b 561 -97 666 -129 561 -126 b 668 15 561 -58 635 -6 b 849 304 764 59 849 152 b 818 429 849 318 838 429 b 560 226 806 429 787 226 b 259 598 439 226 259 333 b 548 979 259 772 345 979 b 705 848 724 979 647 848 b 848 975 792 848 848 894 b 541 1176 848 1125 661 1176 b 34 545 203 1176 34 847 b 442 -18 34 281 164 12 b 257 -168 357 -63 257 -145 "},"’":{"x_min":69.4375,"x_max":402.78125,"ha":472,"o":"m 97 1056 b 69 1030 93 1054 69 1037 b 177 905 69 1016 177 1022 b 141 800 177 848 141 805 b 152 793 141 795 148 793 b 402 1019 233 793 402 859 b 265 1176 402 1091 343 1176 b 212 1150 244 1176 227 1161 l 97 1056 "},"-":{"x_min":0,"x_max":347.21875,"ha":347,"o":"m 269 348 b 347 501 323 348 347 487 b 283 526 347 533 305 526 l 77 526 b 0 373 23 526 0 387 b 63 348 0 341 41 348 l 269 348 "},"Q":{"x_min":69.109375,"x_max":958.015625,"ha":1004,"o":"m 874 -18 b 934 -58 888 -30 914 -58 b 958 8 959 -58 958 -6 b 858 222 958 100 924 161 b 933 558 909 333 934 466 b 501 1176 933 834 839 1176 b 69 558 162 1176 69 834 b 501 -20 69 151 264 -20 b 759 80 577 -20 696 9 l 874 -18 m 501 979 b 708 612 688 979 708 748 b 677 363 708 529 702 444 b 474 536 588 411 502 454 b 452 559 474 540 474 559 b 431 483 437 559 431 493 b 569 227 431 376 485 290 b 501 211 545 212 516 211 b 294 591 376 211 294 325 b 501 979 294 731 320 979 "},"M":{"x_min":69.4375,"x_max":1134.71875,"ha":1204,"o":"m 294 0 b 344 20 311 0 344 -4 b 256 652 344 40 256 290 b 301 852 256 681 255 852 b 404 681 344 852 390 712 b 598 266 527 397 481 266 b 761 681 691 266 644 397 b 868 852 775 715 827 852 b 909 652 913 852 909 681 b 830 20 909 290 830 40 b 880 0 830 -4 863 0 l 1058 0 b 1134 494 1093 0 1134 -26 b 1038 1155 1134 1180 1062 1155 l 930 1155 b 777 1062 876 1155 855 1156 b 601 781 630 883 622 781 b 434 1062 573 781 565 883 b 293 1155 366 1155 347 1155 l 165 1155 b 69 494 141 1155 69 1180 b 145 0 69 -26 111 0 l 294 0 "},"C":{"x_min":34.265625,"x_max":849.546875,"ha":896,"o":"m 496 -20 b 849 304 691 -20 849 98 b 818 429 849 318 838 429 b 560 226 806 429 787 226 b 259 598 439 226 259 333 b 548 979 259 772 345 979 b 705 848 724 979 648 848 b 848 975 792 848 848 894 b 541 1176 848 1125 662 1176 b 34 545 203 1176 34 847 b 496 -20 34 265 181 -20 "},"œ":{"x_min":29.171875,"x_max":1193.0625,"ha":1239,"o":"m 904 746 b 1020 640 956 746 1020 708 b 751 514 1020 569 768 514 b 726 544 733 514 726 529 b 904 746 726 625 791 746 m 377 211 b 201 480 237 211 201 369 b 377 746 201 590 240 746 b 554 480 515 746 554 590 b 377 211 554 369 518 211 m 29 446 b 377 -20 29 119 218 -20 b 623 107 473 -20 575 33 b 890 -20 694 22 779 -20 b 1193 257 1056 -20 1193 80 b 1168 340 1193 268 1188 340 b 920 166 1148 340 1148 166 b 745 279 851 166 745 214 b 1193 659 745 423 1193 361 b 911 909 1193 823 1063 909 b 641 768 808 909 713 864 b 377 909 579 858 488 909 b 29 446 136 909 29 669 "},"!":{"x_min":69.4375,"x_max":380.5625,"ha":451,"o":"m 223 -20 b 380 131 309 -20 380 45 b 222 284 380 218 309 284 b 69 133 138 284 69 216 b 223 -20 69 48 137 -20 m 147 1155 b 69 952 91 1155 69 1180 b 195 369 69 802 131 369 b 293 388 233 369 293 375 b 270 722 293 416 270 583 b 380 1129 270 916 380 1106 b 331 1155 380 1152 350 1155 l 147 1155 "},"ç":{"x_min":29.171875,"x_max":631.9375,"ha":678,"o":"m 134 -137 b 295 -236 134 -161 295 -145 b 184 -325 295 -284 184 -300 b 234 -343 184 -337 201 -343 b 543 -180 331 -343 543 -294 b 438 -66 543 -98 438 -95 b 513 19 438 -30 495 1 b 630 248 587 63 630 144 b 609 330 630 305 616 330 b 412 193 597 330 562 193 b 216 440 280 193 216 305 b 411 745 216 556 268 745 b 550 643 523 745 518 643 b 631 765 601 643 631 723 b 423 909 631 844 544 909 b 29 400 150 909 29 638 b 277 -11 29 222 104 33 b 134 -137 204 -56 134 -119 "},"È":{"x_min":69.4375,"x_max":816.671875,"ha":829,"o":"m 765 0 b 816 20 781 0 816 -5 b 702 269 816 34 723 269 b 447 177 669 269 584 177 b 272 369 330 177 272 258 b 445 558 272 506 375 558 b 566 530 500 558 552 530 b 661 758 583 530 661 756 b 598 787 661 781 615 787 b 338 722 481 787 383 722 b 294 801 300 722 294 772 b 491 991 294 934 395 991 b 693 926 627 991 669 926 b 800 1131 711 926 800 1120 b 733 1155 800 1159 750 1155 l 186 1155 b 69 327 145 1155 69 513 b 127 0 76 45 54 -2 l 765 0 m 480 1463 b 390 1508 452 1515 452 1508 b 300 1476 366 1508 300 1518 b 584 1220 300 1443 500 1212 b 602 1230 593 1220 602 1222 b 586 1266 602 1240 590 1259 l 480 1463 "},"ﬁ":{"x_min":11.34375,"x_max":775.28125,"ha":839,"o":"m 701 0 b 775 36 733 0 775 -8 b 721 613 775 48 721 263 b 737 861 721 765 737 816 b 691 888 737 877 722 888 b 376 875 439 888 476 875 b 340 918 354 875 340 898 b 405 1006 340 950 366 1006 b 571 979 546 1006 544 979 b 632 1137 601 979 632 1116 b 361 1184 632 1184 457 1184 b 176 1044 289 1184 203 1130 b 94 888 157 981 157 888 b 11 770 41 888 11 876 b 28 727 11 745 9 727 b 82 744 43 727 57 744 b 132 623 144 744 132 665 b 128 415 132 554 128 484 b 173 0 128 -41 153 0 l 322 0 b 366 25 347 0 366 -5 b 315 595 366 43 315 412 b 389 744 315 650 312 744 l 454 744 b 537 691 493 744 537 726 b 533 459 535 656 533 583 b 607 0 533 -29 539 0 l 701 0 "},"{":{"x_min":20.828125,"x_max":520.828125,"ha":556,"o":"m 20 587 b 137 245 20 559 137 626 b 311 0 137 -13 220 0 b 520 16 341 0 520 -6 b 301 229 520 106 301 -13 b 318 451 301 308 318 366 b 226 587 318 544 226 573 b 318 723 226 601 318 630 b 301 947 318 808 301 866 b 520 1159 301 1190 520 1069 b 311 1176 520 1183 341 1176 b 137 930 220 1176 137 1190 b 20 587 137 548 20 615 "},"X":{"x_min":34.78125,"x_max":848.671875,"ha":883,"o":"m 794 0 b 848 41 840 0 848 -5 b 632 601 848 381 632 536 b 818 1073 632 677 818 738 b 755 1155 818 1126 819 1156 l 647 1155 b 590 1129 630 1155 590 1166 b 594 1027 590 1120 594 1045 b 480 737 594 911 530 737 b 351 1061 451 737 369 822 b 312 1155 343 1163 345 1151 l 159 1155 b 91 1118 127 1155 91 1161 b 307 601 91 777 307 687 b 34 20 307 527 34 381 b 91 0 34 -6 72 0 l 194 0 b 259 73 257 0 250 0 b 441 441 287 356 416 441 b 586 106 468 441 565 343 l 590 47 b 657 0 595 -8 608 0 l 794 0 "},"ô":{"x_min":29.171875,"x_max":726.390625,"ha":756,"o":"m 377 -20 b 726 445 537 -20 726 119 b 377 909 726 669 619 909 b 29 445 136 909 29 669 b 377 -20 29 119 218 -20 m 377 211 b 201 480 237 211 201 369 b 377 745 201 590 240 745 b 554 480 515 745 554 590 b 377 211 554 369 518 211 m 476 1188 b 363 1247 434 1231 423 1247 b 280 1204 318 1247 312 1237 l 141 1055 b 111 1008 130 1044 111 1025 b 198 959 111 986 186 959 b 258 1001 220 959 243 986 l 309 1056 b 355 1091 318 1066 341 1091 b 397 1059 368 1091 390 1066 l 480 977 b 509 959 487 972 497 959 b 644 1013 548 959 644 1006 b 626 1040 644 1025 634 1033 l 476 1188 "},"¼":{"x_min":38.890625,"x_max":1137.5,"ha":1204,"o":"m 1055 0 l 1055 145 l 1137 145 l 1137 273 l 1055 273 l 1055 677 l 888 677 l 616 254 l 616 145 l 891 145 l 891 0 l 1055 0 m 891 273 l 738 273 l 737 275 l 850 425 b 891 500 865 445 876 472 l 894 497 b 891 393 891 465 891 431 l 891 273 m 351 -13 l 881 1140 l 745 1140 l 215 -13 l 351 -13 m 351 458 l 351 1134 l 190 1134 l 38 1056 l 75 931 l 170 979 l 175 979 l 175 458 l 351 458 "},"#":{"x_min":42.953125,"x_max":815.03125,"ha":858,"o":"m 265 0 l 316 326 l 467 326 l 417 0 l 549 0 l 603 326 l 766 326 l 766 469 l 622 469 l 656 663 l 815 663 l 815 806 l 677 806 l 727 1126 l 591 1126 l 541 806 l 388 806 l 440 1126 l 306 1126 l 255 806 l 90 806 l 90 663 l 237 663 l 202 469 l 42 469 l 42 326 l 181 326 l 130 0 l 265 0 m 335 469 l 369 663 l 522 663 l 488 469 l 335 469 "},"Ê":{"x_min":69.4375,"x_max":816.671875,"ha":829,"o":"m 765 0 b 816 20 781 0 816 -5 b 702 269 816 34 723 269 b 447 177 669 269 584 177 b 272 369 330 177 272 258 b 445 558 272 506 375 558 b 566 530 500 558 552 530 b 661 758 583 530 661 756 b 598 787 661 781 615 787 b 338 722 481 787 383 722 b 294 801 300 722 294 772 b 491 991 294 934 395 991 b 693 926 627 991 669 926 b 800 1131 711 926 800 1120 b 733 1155 800 1159 750 1155 l 186 1155 b 69 327 145 1155 69 513 b 127 0 76 45 54 -2 l 765 0 m 569 1456 b 456 1515 527 1500 516 1515 b 373 1472 411 1515 405 1505 l 234 1323 b 204 1276 223 1312 204 1293 b 291 1227 204 1254 279 1227 b 351 1269 313 1227 336 1254 l 402 1325 b 448 1359 411 1334 434 1359 b 490 1327 461 1359 483 1334 l 573 1245 b 602 1227 580 1240 590 1227 b 737 1281 641 1227 737 1275 b 719 1308 737 1293 727 1301 l 569 1456 "},")":{"x_min":104.171875,"x_max":536.109375,"ha":640,"o":"m 536 544 b 391 1176 536 836 441 1176 b 290 1126 361 1176 290 1147 b 372 591 290 1109 372 951 b 143 166 372 350 352 166 b 104 156 106 166 104 162 b 226 -20 104 138 131 -20 b 536 544 433 -20 536 175 "},"Å":{"x_min":45.828125,"x_max":923.609375,"ha":969,"o":"m 822 0 b 923 333 863 0 923 -37 b 519 1176 923 977 565 1176 b 45 305 458 1176 45 900 b 136 0 45 125 65 0 l 334 0 b 361 9 352 0 361 1 b 270 258 361 30 270 148 b 598 438 270 416 472 438 b 720 352 661 438 720 415 b 613 16 720 194 613 55 b 666 0 613 -4 654 0 l 822 0 m 525 938 b 680 672 577 938 680 758 b 609 626 680 633 658 626 b 327 590 487 626 352 590 b 301 616 311 590 301 600 b 525 938 301 718 450 938 m 512 1208 b 683 1369 608 1208 683 1281 b 509 1529 683 1462 608 1529 b 341 1370 413 1529 341 1456 b 512 1208 341 1280 415 1208 m 512 1294 b 441 1370 468 1294 441 1330 b 511 1443 441 1409 472 1443 b 583 1372 550 1443 583 1411 b 512 1294 583 1329 556 1294 "},"ø":{"x_min":2.515625,"x_max":762.1875,"ha":756,"o":"m 610 802 b 377 909 555 872 478 909 b 28 445 135 909 28 669 b 95 156 28 351 48 236 l 28 74 b 2 27 17 62 2 45 b 56 -20 2 -4 31 -20 b 103 12 81 -20 94 1 l 155 76 b 377 -20 213 15 294 -20 b 726 445 537 -20 726 119 b 666 718 726 570 699 650 l 730 800 b 762 862 741 812 762 837 b 712 909 762 896 741 909 b 651 858 683 909 662 872 l 610 802 m 545 562 b 553 480 551 537 553 508 b 377 211 553 369 517 211 b 288 241 351 211 315 222 l 545 562 m 228 322 b 201 480 206 375 201 426 b 377 746 201 590 240 746 b 505 669 440 746 480 715 l 228 322 "},"â":{"x_min":46.328125,"x_max":658.890625,"ha":722,"o":"m 460 272 b 375 162 460 204 457 162 b 233 286 301 162 233 208 b 401 440 233 370 320 440 b 460 333 468 440 460 381 l 460 272 m 46 254 b 404 -1 46 170 69 -1 b 658 30 528 -1 658 1 b 647 175 658 77 647 113 b 615 715 647 223 644 634 b 310 908 544 909 354 908 b 67 738 182 908 67 841 b 160 625 67 679 115 625 b 311 744 190 625 169 744 b 446 636 372 744 446 706 b 374 576 446 590 414 583 b 46 254 218 550 46 429 m 446 1187 b 333 1245 404 1230 393 1245 b 250 1202 288 1245 282 1236 l 111 1054 b 81 1006 100 1043 81 1023 b 168 958 81 984 156 958 b 228 1000 190 958 213 984 l 279 1055 b 325 1090 288 1065 311 1090 b 367 1058 338 1090 360 1065 l 450 976 b 479 958 457 970 467 958 b 614 1012 518 958 614 1005 b 596 1038 614 1023 604 1031 l 446 1187 "},"}":{"x_min":34.71875,"x_max":534.71875,"ha":556,"o":"m 534 587 b 418 930 534 615 418 548 b 244 1176 418 1190 334 1176 b 34 1159 213 1176 34 1183 b 254 947 34 1069 254 1190 b 237 723 254 866 237 808 b 329 587 237 630 329 601 b 237 451 329 573 237 544 b 254 229 237 366 254 308 b 34 16 254 -13 34 106 b 244 0 34 -6 213 0 b 418 245 334 0 418 -13 b 534 587 418 626 534 559 "},"‰":{"x_min":38.890625,"x_max":1755.5625,"ha":1796,"o":"m 1513 684 b 1265 329 1375 684 1265 562 b 1509 -9 1265 113 1372 -9 b 1755 345 1643 -9 1755 106 b 1516 684 1755 572 1647 684 l 1513 684 m 1511 554 b 1597 337 1572 554 1597 481 b 1511 119 1597 183 1562 119 b 1422 337 1455 119 1422 187 b 1509 554 1422 476 1451 554 l 1511 554 m 951 684 b 701 330 812 684 701 562 b 947 -9 701 113 809 -9 b 1191 345 1080 -9 1191 108 b 952 684 1191 572 1084 684 l 951 684 m 947 552 b 1034 337 1011 552 1034 480 b 948 120 1034 183 1000 120 b 859 337 891 120 859 188 b 947 552 859 475 888 552 m 290 1143 b 38 788 151 1143 38 1020 b 284 447 38 570 148 447 b 530 804 419 447 530 563 b 293 1143 530 1029 425 1143 l 290 1143 m 286 1011 b 372 795 347 1011 372 938 b 287 577 372 641 338 577 b 197 795 230 577 197 645 b 284 1011 197 933 226 1011 l 286 1011 m 391 -13 l 944 1140 l 829 1140 l 276 -13 l 391 -13 "},"Ä":{"x_min":45.828125,"x_max":923.609375,"ha":969,"o":"m 822 0 b 923 333 863 0 923 -37 b 519 1176 923 977 565 1176 b 45 305 458 1176 45 900 b 136 0 45 125 65 0 l 334 0 b 361 9 352 0 361 1 b 270 258 361 30 270 148 b 598 438 270 416 472 438 b 720 352 661 438 720 415 b 613 16 720 194 613 55 b 666 0 613 -4 654 0 l 822 0 m 525 938 b 680 672 577 938 680 758 b 609 626 680 633 658 626 b 327 590 487 626 352 590 b 301 616 311 590 301 600 b 525 938 301 718 450 938 m 672 1251 b 795 1362 738 1251 795 1290 b 672 1473 795 1434 738 1473 b 548 1362 605 1473 548 1434 b 672 1251 548 1290 605 1251 m 354 1251 b 477 1362 420 1251 477 1290 b 354 1473 477 1434 420 1473 b 230 1362 287 1473 230 1434 b 354 1251 230 1290 287 1251 "},"¸":{"x_min":156.9375,"x_max":565.28125,"ha":694,"o":"m 156 -151 b 318 -250 156 -175 318 -159 b 206 -338 318 -298 206 -313 b 256 -356 206 -351 223 -356 b 565 -194 354 -356 565 -308 b 461 -80 565 -112 461 -109 b 541 13 461 -37 541 0 b 430 30 541 41 513 27 b 156 -151 354 27 156 -120 "},"a":{"x_min":46.328125,"x_max":658.890625,"ha":722,"o":"m 460 272 b 375 162 460 204 457 162 b 233 286 301 162 233 208 b 401 440 233 370 320 440 b 460 333 468 440 460 381 l 460 272 m 46 254 b 404 -1 46 170 69 -1 b 658 30 528 -1 658 1 b 647 175 658 77 647 113 b 615 715 647 223 644 634 b 310 908 544 909 354 908 b 67 738 182 908 67 841 b 160 625 67 679 115 625 b 311 744 190 625 169 744 b 446 636 372 744 446 706 b 374 576 446 590 414 583 b 46 254 218 550 46 429 "},"—":{"x_min":-34.71875,"x_max":1423.609375,"ha":1389,"o":"m 1345 356 b 1423 495 1400 356 1423 481 b 1359 520 1423 527 1381 520 l 43 520 b -34 381 -11 520 -34 395 b 29 356 -34 350 6 356 l 1345 356 "},"=":{"x_min":70.828125,"x_max":734.71875,"ha":806,"o":"m 734 561 l 734 690 l 70 690 l 70 561 l 734 561 m 734 223 l 734 354 l 70 354 l 70 223 l 734 223 "},"N":{"x_min":69.4375,"x_max":915.28125,"ha":985,"o":"m 838 0 b 915 494 873 0 915 -26 b 819 1155 915 1180 850 1155 l 713 1155 b 656 1140 687 1155 656 1159 b 727 618 656 1108 727 877 b 716 538 727 598 730 538 b 693 563 704 538 697 556 b 275 1155 433 1044 327 1155 l 165 1155 b 69 494 141 1155 69 1180 b 145 0 69 -26 111 0 l 275 0 b 313 12 287 0 313 -5 b 256 616 313 83 256 225 b 281 795 256 644 247 795 b 466 525 326 795 448 562 b 693 0 683 86 597 0 l 838 0 "},"˚":{"x_min":106.9375,"x_max":448.609375,"ha":556,"o":"m 277 940 b 448 1101 373 940 448 1013 b 275 1261 448 1194 373 1261 b 106 1102 179 1261 106 1188 b 277 940 106 1012 180 940 m 277 1026 b 206 1102 233 1026 206 1062 b 276 1175 206 1141 237 1175 b 348 1104 315 1175 348 1143 b 277 1026 348 1061 322 1026 "},"ú":{"x_min":64.109375,"x_max":708.546875,"ha":772,"o":"m 519 888 b 472 872 504 888 472 890 b 521 469 472 850 521 636 b 369 156 521 170 415 156 b 251 445 250 156 251 368 b 315 868 251 708 315 847 b 259 888 315 895 278 888 l 132 888 b 64 448 73 888 64 472 b 286 -20 64 51 171 -20 b 389 11 332 -20 364 -4 b 458 56 414 27 446 56 b 572 -20 537 56 426 -20 b 708 465 672 -20 708 -44 b 648 888 708 597 707 888 l 519 888 m 340 998 b 323 962 336 991 323 972 b 341 952 323 954 333 952 b 626 1208 426 944 626 1175 b 536 1240 626 1250 559 1240 b 446 1195 473 1240 473 1247 l 340 998 "},"⁄":{"x_min":-170.890625,"x_max":493,"ha":321,"o":"m -34 -13 l 493 1141 l 356 1141 l -170 -13 l -34 -13 "},"2":{"x_min":63.6875,"x_max":741.46875,"ha":806,"o":"m 295 254 b 735 848 295 402 735 504 b 409 1147 735 1040 598 1147 b 87 909 212 1147 87 980 b 185 741 87 894 172 741 b 413 959 212 741 269 959 b 533 812 498 959 533 890 b 63 54 533 597 63 536 b 117 -20 63 15 73 -20 b 298 16 152 -20 228 16 b 538 -20 360 16 470 -20 b 741 215 624 -20 741 76 b 663 390 741 312 674 390 b 669 327 648 390 669 359 b 572 211 669 259 624 211 b 403 238 535 211 477 238 b 323 222 358 238 341 222 b 295 254 310 222 295 229 "},"ü":{"x_min":63.65625,"x_max":707.546875,"ha":772,"o":"m 518 888 b 471 872 503 888 471 890 b 520 469 471 850 520 636 b 369 156 520 170 414 156 b 251 445 249 156 251 368 b 315 868 251 708 315 847 b 259 888 315 895 277 888 l 131 888 b 63 448 73 888 63 472 b 285 -20 63 51 170 -20 b 388 11 331 -20 363 -4 b 457 56 413 27 445 56 b 571 -20 536 56 426 -20 b 707 465 671 -20 707 -44 b 647 888 707 597 706 888 l 518 888 m 545 983 b 668 1094 611 983 668 1022 b 545 1205 668 1166 611 1205 b 421 1094 478 1205 421 1166 b 545 983 421 1022 478 983 m 227 983 b 351 1094 294 983 351 1022 b 227 1205 351 1166 294 1205 b 103 1094 160 1205 103 1166 b 227 983 103 1022 160 983 "},"¯":{"x_min":159.71875,"x_max":534.71875,"ha":694,"o":"m 456 983 b 534 1122 511 983 534 1108 b 470 1147 534 1154 493 1147 l 237 1147 b 159 1008 183 1147 159 1022 b 223 983 159 976 201 983 l 456 983 "},"Z":{"x_min":22.21875,"x_max":838.890625,"ha":861,"o":"m 743 0 b 805 20 790 0 805 8 b 697 279 805 27 723 279 b 468 177 666 279 612 177 b 333 262 408 177 333 201 b 838 1111 333 437 838 944 b 784 1155 838 1143 808 1155 l 145 1155 b 90 1143 136 1155 90 1161 b 184 912 90 1129 150 912 b 391 991 211 912 245 991 b 477 931 431 991 477 980 b 22 58 477 834 22 384 b 115 0 22 -8 61 0 l 743 0 "},"u":{"x_min":64.109375,"x_max":708.546875,"ha":772,"o":"m 519 888 b 472 872 504 888 472 890 b 521 469 472 850 521 636 b 369 156 521 170 415 156 b 251 445 250 156 251 368 b 315 868 251 708 315 847 b 259 888 315 895 278 888 l 132 888 b 64 448 73 888 64 472 b 286 -20 64 51 171 -20 b 389 11 332 -20 364 -4 b 458 56 414 27 446 56 b 572 -20 537 56 426 -20 b 708 465 672 -20 708 -44 b 648 888 708 597 707 888 l 519 888 "},"˜":{"x_min":-0.046875,"x_max":569.046875,"ha":569,"o":"m 176 1205 b 0 1042 56 1205 0 1103 b 41 1023 0 1020 27 1023 b 98 1073 48 1023 43 1073 b 213 1041 130 1073 169 1058 b 365 1008 259 1024 309 1008 b 569 1177 555 1008 569 1171 b 535 1195 569 1184 562 1195 b 442 1138 506 1195 525 1138 b 281 1183 389 1138 335 1162 b 176 1205 252 1195 209 1205 "},"Ó":{"x_min":34.71875,"x_max":954.171875,"ha":989,"o":"m 563 -20 b 954 420 844 -20 954 180 b 494 1176 954 777 754 1176 b 34 420 234 1176 34 777 b 425 -20 34 180 144 -20 l 563 -20 m 494 226 b 259 451 347 226 259 288 b 494 951 259 758 401 951 b 729 451 587 951 729 758 b 494 226 729 288 641 226 m 406 1266 b 390 1230 402 1259 390 1240 b 408 1220 390 1222 400 1220 b 693 1476 493 1212 693 1443 b 602 1508 693 1518 626 1508 b 512 1463 540 1508 540 1515 l 406 1266 "},"k":{"x_min":65.09375,"x_max":708.328125,"ha":714,"o":"m 268 0 b 302 16 288 0 302 1 b 268 301 302 41 268 131 b 350 388 268 368 331 388 b 483 43 391 388 481 234 b 534 0 484 -1 497 0 l 647 0 b 708 37 681 0 708 -4 b 594 391 708 202 651 320 b 480 513 537 462 480 484 b 631 858 480 541 631 666 b 572 888 631 897 600 888 l 487 888 b 444 859 458 888 444 894 b 270 526 444 709 318 526 b 252 637 252 526 252 588 b 304 1154 254 998 304 1126 b 270 1184 304 1176 288 1184 l 122 1184 b 65 497 59 1184 65 562 b 108 0 65 465 59 0 l 268 0 "},"ˇ":{"x_min":115.28125,"x_max":648.609375,"ha":764,"o":"m 279 1166 b 250 1184 272 1172 262 1184 b 115 1130 211 1184 115 1137 b 133 1104 115 1119 125 1111 l 283 955 b 395 897 325 912 336 897 b 479 940 441 897 447 906 l 618 1088 b 648 1136 629 1100 648 1119 b 561 1184 648 1158 573 1184 b 501 1143 538 1184 516 1158 l 450 1087 b 404 1052 441 1077 418 1052 b 362 1084 391 1052 369 1077 l 279 1166 "},"Ù":{"x_min":45.828125,"x_max":888.890625,"ha":935,"o":"m 670 1155 b 618 1137 658 1155 618 1159 b 686 625 618 1112 686 986 b 466 226 686 244 536 226 b 270 638 384 226 270 323 b 340 1137 270 958 340 1105 b 309 1155 340 1155 323 1155 l 116 1155 b 45 595 98 1155 45 1040 b 466 -20 45 180 205 -20 b 888 633 763 -20 888 225 b 806 1155 888 1133 834 1155 l 670 1155 m 408 1463 b 318 1508 380 1515 380 1508 b 227 1476 294 1508 227 1518 b 512 1220 227 1443 427 1212 b 530 1230 520 1220 530 1222 b 513 1266 530 1240 518 1259 l 408 1463 "},"Ÿ":{"x_min":22.21875,"x_max":872.21875,"ha":894,"o":"m 701 1155 b 645 1131 681 1155 645 1161 b 658 1018 645 1120 658 1062 b 459 633 658 852 500 633 b 281 1011 418 633 281 812 b 294 1119 281 1034 294 1108 b 215 1155 294 1158 241 1155 l 104 1155 b 22 1050 41 1155 22 1154 b 338 415 22 681 338 463 b 245 80 338 368 245 247 b 288 0 245 52 251 0 l 450 0 b 513 26 470 0 513 -2 b 505 115 513 55 505 84 b 872 1081 505 554 872 644 b 805 1155 872 1136 861 1155 l 701 1155 m 606 1251 b 730 1362 673 1251 730 1290 b 606 1473 730 1434 673 1473 b 483 1362 540 1473 483 1434 b 606 1251 483 1290 540 1251 m 288 1251 b 412 1362 355 1251 412 1290 b 288 1473 412 1434 355 1473 b 165 1362 222 1473 165 1434 b 288 1251 165 1290 222 1251 "},"€":{"x_min":26.828125,"x_max":740.71875,"ha":806,"o":"m 740 1095 b 524 1145 710 1116 631 1145 b 143 756 297 1145 178 1004 l 72 756 l 26 608 l 131 608 b 129 565 129 593 129 580 b 131 515 129 544 129 527 l 72 515 l 26 366 l 146 366 b 524 -19 183 98 314 -19 b 740 25 640 -19 712 4 l 740 227 b 565 172 708 198 650 172 b 374 366 454 172 390 233 l 571 366 l 618 515 l 357 515 b 356 565 357 529 356 548 b 357 608 356 580 357 595 l 649 608 l 696 756 l 372 756 b 564 951 390 888 451 951 b 740 891 654 951 710 923 l 740 1095 "},"¢":{"x_min":101.390625,"x_max":704.171875,"ha":806,"o":"m 288 583 b 409 870 288 678 322 818 b 383 550 401 763 383 657 b 388 362 383 488 387 425 b 288 583 322 401 288 486 m 681 474 b 500 343 669 474 641 343 b 483 497 494 390 483 443 b 513 882 483 599 502 757 b 629 786 566 882 606 786 b 704 909 680 786 704 867 b 548 1045 704 981 618 1045 b 541 1061 543 1045 541 1050 b 555 1111 541 1070 555 1090 b 522 1147 555 1131 543 1147 b 447 1128 501 1147 468 1142 b 404 1042 430 1110 427 1042 b 101 543 347 1042 101 935 b 362 128 101 246 273 128 b 401 101 390 128 397 114 b 438 17 406 78 415 17 b 552 58 479 17 552 35 b 518 119 552 76 518 106 b 534 142 518 125 529 142 b 702 392 548 142 702 203 b 681 474 702 449 688 474 "},"Ω":{"x_min":45.828125,"x_max":951.390625,"ha":1003,"o":"m 231 181 l 45 181 l 45 0 l 433 0 l 433 131 b 286 583 358 186 286 347 b 501 952 286 800 368 952 b 709 593 641 952 709 790 b 663 286 709 462 691 361 b 563 131 637 209 601 159 l 563 0 l 951 0 l 951 181 l 762 181 l 762 186 b 929 645 845 280 929 447 b 504 1143 929 862 794 1143 b 66 630 238 1143 66 902 b 231 186 66 434 150 281 l 231 181 "},"ß":{"x_min":69.4375,"x_max":750,"ha":774,"o":"m 252 0 b 308 31 304 0 308 9 b 256 609 308 56 256 348 b 370 1018 256 1013 319 1018 b 438 938 416 1018 438 977 b 368 831 438 883 406 841 b 318 726 334 823 318 816 b 338 656 318 705 319 656 b 386 683 347 656 369 683 b 547 311 437 683 547 513 b 500 215 547 273 541 215 b 450 236 477 215 463 236 b 344 59 430 236 344 75 b 497 -20 344 33 423 -20 b 750 305 602 -20 750 50 b 512 758 750 659 512 743 b 611 963 512 776 611 805 b 366 1205 611 1112 493 1205 b 141 1080 304 1205 211 1190 b 69 563 94 1005 69 913 b 151 0 69 -27 88 0 l 252 0 "},"é":{"x_min":29.171875,"x_max":683.328125,"ha":729,"o":"m 380 -20 b 683 256 547 -20 683 80 b 658 340 683 268 679 340 b 411 166 638 340 638 166 b 236 279 341 166 236 213 b 683 659 236 423 683 361 b 401 909 683 823 554 909 b 29 406 215 909 29 743 b 380 -20 29 184 131 -20 m 394 745 b 511 640 447 745 511 708 b 241 513 511 569 258 513 b 216 544 223 513 216 529 b 394 745 216 625 281 745 m 318 998 b 301 962 313 991 301 972 b 319 952 301 954 311 952 b 604 1208 404 944 604 1175 b 513 1240 604 1250 537 1240 b 423 1195 451 1240 451 1247 l 318 998 "},"s":{"x_min":54.171875,"x_max":663.890625,"ha":718,"o":"m 347 -20 b 663 262 513 -20 663 81 b 258 684 663 544 258 541 b 359 745 258 726 316 745 b 531 638 487 745 495 638 b 641 777 563 638 641 751 b 372 909 641 805 545 909 b 86 648 222 909 86 818 b 461 266 86 372 461 409 b 337 166 461 195 394 166 b 98 376 140 166 105 376 b 54 227 87 376 54 293 b 347 -20 54 65 200 -20 "},"B":{"x_min":69.4375,"x_max":873.609375,"ha":919,"o":"m 563 0 b 873 268 791 0 873 131 b 650 668 873 506 650 619 b 808 952 650 711 808 800 b 525 1155 808 1041 770 1155 l 165 1155 b 69 494 141 1155 69 1180 b 145 0 69 -26 111 0 l 563 0 m 430 538 b 488 562 445 547 470 562 b 648 325 526 562 648 423 b 447 177 648 216 547 177 b 280 415 333 177 280 204 b 340 490 280 461 302 469 l 430 538 m 383 681 b 308 651 361 666 325 651 b 272 715 269 651 272 687 b 472 991 272 931 334 991 b 583 908 525 991 583 975 b 484 754 583 851 525 783 l 383 681 "},"…":{"x_min":76.390625,"x_max":1312.5,"ha":1389,"o":"m 230 -20 b 387 131 316 -20 387 45 b 229 284 387 218 316 284 b 76 133 145 284 76 216 b 230 -20 76 48 144 -20 m 693 -20 b 850 131 779 -20 850 45 b 691 284 850 218 779 284 b 538 133 608 284 538 216 b 693 -20 538 48 606 -20 m 1155 -20 b 1312 131 1241 -20 1312 45 b 1154 284 1312 218 1241 284 b 1001 133 1070 284 1001 216 b 1155 -20 1001 48 1069 -20 "},"?":{"x_min":69.4375,"x_max":597.21875,"ha":667,"o":"m 183 423 b 248 380 183 372 202 380 b 322 433 309 380 322 372 b 597 850 322 540 597 598 b 302 1176 597 1018 479 1176 b 69 1036 175 1176 69 1080 b 177 912 69 1019 162 912 b 298 998 200 912 219 998 b 394 879 363 998 394 936 b 183 523 394 706 183 727 l 183 423 m 255 -20 b 412 131 341 -20 412 45 b 254 284 412 218 341 284 b 101 133 170 284 101 216 b 255 -20 101 48 169 -20 "},"H":{"x_min":69.4375,"x_max":918.0625,"ha":988,"o":"m 873 0 b 918 460 918 0 918 394 b 797 1156 918 756 850 1156 l 615 1156 b 565 1142 606 1156 565 1160 b 687 794 565 1124 687 925 b 565 750 687 735 633 750 b 333 709 376 750 376 709 b 300 777 312 709 300 742 b 394 1144 300 924 394 1125 b 352 1156 394 1160 361 1156 l 163 1156 b 69 460 97 1156 69 562 b 108 0 69 400 69 0 l 312 0 b 356 14 323 0 356 -4 b 351 35 356 20 354 30 b 294 335 312 127 294 235 b 584 563 294 496 444 563 b 715 437 677 563 715 531 b 626 41 715 299 675 169 b 622 21 623 35 622 28 b 673 0 622 0 659 0 l 873 0 "},"î":{"x_min":-81.9375,"x_max":451.390625,"ha":369,"o":"m 231 0 b 305 36 263 0 305 -8 b 251 613 305 48 251 263 b 268 868 251 765 268 816 b 208 888 268 884 266 888 l 131 888 b 63 459 86 888 63 934 b 137 0 63 -29 69 0 l 231 0 m 283 1188 b 170 1247 241 1231 230 1247 b 87 1204 125 1247 119 1237 l -51 1055 b -81 1008 -62 1044 -81 1025 b 5 959 -81 986 -6 959 b 65 1001 27 959 50 986 l 116 1056 b 162 1091 125 1066 148 1091 b 204 1059 175 1091 197 1066 l 287 977 b 316 959 294 972 304 959 b 451 1013 355 959 451 1006 b 433 1040 451 1025 441 1033 l 283 1188 "},"c":{"x_min":29.171875,"x_max":631.9375,"ha":678,"o":"m 356 -20 b 630 248 520 -20 630 81 b 609 330 630 305 616 330 b 412 193 597 330 562 193 b 216 440 280 193 216 305 b 411 745 216 556 268 745 b 550 643 523 745 518 643 b 631 765 601 643 631 723 b 423 909 631 844 544 909 b 29 400 150 909 29 638 b 356 -20 29 197 126 -20 "},"¶":{"x_min":54.15625,"x_max":701.390625,"ha":810,"o":"m 463 -84 l 463 1029 l 565 1029 l 565 -84 l 701 -84 l 701 1152 b 493 1170 658 1163 587 1170 b 54 788 194 1170 55 1022 b 316 450 52 531 216 450 l 329 450 l 329 -84 l 463 -84 "},"−":{"x_min":70.828125,"x_max":734.71875,"ha":806,"o":"m 734 391 l 734 522 l 70 522 l 70 391 l 734 391 "},"≠":{"x_min":71.03125,"x_max":734.96875,"ha":806,"o":"m 601 815 l 503 850 l 434 684 l 71 684 l 71 558 l 390 558 l 307 354 l 71 354 l 71 229 l 262 229 l 205 97 l 302 59 l 373 229 l 734 229 l 734 354 l 418 354 l 503 558 l 734 558 l 734 684 l 546 684 l 601 815 "},"•":{"x_min":0,"x_max":555.5625,"ha":556,"o":"m 277 277 b 555 555 437 277 555 395 b 277 833 555 715 437 833 b 0 555 118 833 0 715 b 277 277 0 395 118 277 "},"¥":{"x_min":1.390625,"x_max":804.171875,"ha":806,"o":"m 644 1126 b 588 1102 625 1126 588 1132 b 601 988 588 1091 601 1033 b 402 604 601 823 443 604 b 226 982 361 604 226 783 b 238 1090 226 1005 238 1079 b 159 1126 238 1129 186 1126 l 83 1126 b 1 1050 20 1126 1 1125 b 194 555 1 755 194 591 b 127 532 194 529 158 532 b 13 501 68 532 13 536 b 83 368 13 458 19 368 b 143 384 104 368 125 376 b 215 400 162 391 186 400 b 270 333 261 400 269 379 b 208 80 270 302 208 238 b 251 -20 208 52 220 -20 b 470 13 281 -20 470 -9 b 455 115 470 55 455 84 b 552 400 455 316 495 400 b 716 368 601 400 631 368 b 779 394 758 368 779 368 b 691 532 779 419 737 532 b 587 541 631 532 587 526 b 804 1052 587 600 804 755 b 737 1126 804 1107 793 1126 l 644 1126 "},"(":{"x_min":104.171875,"x_max":536.109375,"ha":640,"o":"m 104 611 b 248 -20 104 319 198 -20 b 350 29 279 -20 350 8 b 268 563 350 45 268 204 b 497 988 268 805 287 988 b 536 998 533 988 536 993 b 413 1176 536 1016 508 1176 b 104 611 206 1176 104 980 "},"U":{"x_min":45.828125,"x_max":888.890625,"ha":935,"o":"m 670 1155 b 618 1137 658 1155 618 1159 b 686 625 618 1112 686 986 b 466 226 686 244 536 226 b 270 638 384 226 270 323 b 340 1137 270 958 340 1105 b 309 1155 340 1155 323 1155 l 116 1155 b 45 595 98 1155 45 1040 b 466 -20 45 180 205 -20 b 888 633 763 -20 888 225 b 806 1155 888 1133 834 1155 l 670 1155 "},"◊":{"x_min":74,"x_max":813,"ha":886,"o":"m 813 562 l 537 1204 l 361 1204 l 74 562 l 349 -77 l 525 -77 l 813 562 m 621 556 l 471 202 b 444 104 464 187 450 130 l 436 104 b 411 206 432 127 422 173 l 265 566 l 414 908 b 443 1019 426 944 436 984 l 449 1019 b 478 908 454 986 467 943 l 621 556 "},"Ñ":{"x_min":69.484375,"x_max":915.53125,"ha":985,"o":"m 839 0 b 915 494 873 0 915 -26 b 819 1155 915 1180 850 1155 l 714 1155 b 657 1139 687 1155 657 1159 b 728 617 657 1108 728 877 b 716 538 728 598 730 538 b 693 563 704 538 697 556 b 275 1155 433 1044 327 1155 l 165 1155 b 69 494 141 1155 69 1180 b 145 0 69 -26 111 0 l 275 0 b 313 12 287 0 313 -5 b 257 616 313 82 257 224 b 282 795 257 644 247 795 b 466 524 326 795 448 562 b 693 0 683 85 597 0 l 839 0 m 384 1473 b 208 1310 265 1473 208 1371 b 250 1291 208 1288 236 1291 b 307 1341 257 1291 251 1341 b 422 1309 338 1341 377 1326 b 573 1276 468 1292 518 1276 b 778 1445 764 1276 778 1439 b 744 1463 778 1452 771 1463 b 651 1406 715 1463 734 1406 b 490 1451 598 1406 544 1430 b 384 1473 461 1463 418 1473 "},"F":{"x_min":69.4375,"x_max":800,"ha":761,"o":"m 165 1155 b 69 494 141 1155 69 1180 b 145 0 69 -26 111 0 l 309 0 b 355 12 322 0 356 -4 b 301 343 356 27 301 222 b 484 527 301 456 362 527 b 590 508 538 527 576 508 b 668 731 613 508 668 725 b 620 755 668 755 636 755 b 338 691 437 755 429 691 b 294 801 298 691 294 718 b 491 991 294 934 395 991 b 693 926 627 991 669 926 b 800 1131 711 926 800 1120 b 733 1155 800 1159 750 1155 l 165 1155 "},"­":{"x_min":0,"x_max":347.21875,"ha":347,"o":"m 269 348 b 347 501 323 348 347 487 b 283 526 347 533 305 526 l 77 526 b 0 373 23 526 0 387 b 63 348 0 341 41 348 l 269 348 "},":":{"x_min":45.828125,"x_max":356.9375,"ha":403,"o":"m 200 -20 b 356 131 286 -20 356 45 b 198 284 356 218 286 284 b 45 133 115 284 45 216 b 200 -20 45 48 113 -20 m 200 604 b 356 756 286 604 356 670 b 198 909 356 843 286 909 b 45 758 115 909 45 841 b 200 604 45 673 113 604 "},"Û":{"x_min":45.828125,"x_max":888.890625,"ha":935,"o":"m 670 1155 b 618 1137 658 1155 618 1159 b 686 625 618 1112 686 986 b 466 226 686 244 536 226 b 270 638 384 226 270 323 b 340 1137 270 958 340 1105 b 309 1155 340 1155 323 1155 l 116 1155 b 45 595 98 1155 45 1040 b 466 -20 45 180 205 -20 b 888 633 763 -20 888 225 b 806 1155 888 1133 834 1155 l 670 1155 m 566 1456 b 454 1515 525 1500 513 1515 b 370 1472 408 1515 402 1505 l 231 1323 b 201 1276 220 1312 201 1293 b 288 1227 201 1254 276 1227 b 348 1269 311 1227 333 1254 l 400 1325 b 445 1359 408 1334 431 1359 b 487 1327 458 1359 480 1334 l 570 1245 b 600 1227 577 1240 587 1227 b 734 1281 638 1227 734 1275 b 716 1308 734 1293 725 1301 l 566 1456 "},"*":{"x_min":177.5,"x_max":720.5,"ha":899,"o":"m 519 999 l 533 1156 b 484 1184 533 1189 510 1184 l 413 1184 b 365 1145 388 1184 365 1189 l 378 999 b 233 1057 249 1054 241 1057 b 177 918 209 1057 177 937 b 352 874 177 898 237 891 b 241 749 253 770 241 762 b 365 664 241 731 348 664 b 449 792 387 664 392 694 b 531 664 508 689 512 664 b 656 751 544 664 656 735 b 545 874 656 762 639 775 b 720 923 660 892 720 898 b 663 1057 720 936 681 1057 b 519 999 646 1057 570 1031 "},"†":{"x_min":56.9375,"x_max":748.609375,"ha":808,"o":"m 295 1168 l 311 826 l 56 840 l 56 637 l 311 651 l 295 -84 l 509 -84 l 493 651 l 748 637 l 748 840 l 493 826 l 509 1168 l 295 1168 "},"∕":{"x_min":-170.890625,"x_max":493,"ha":321,"o":"m -34 -13 l 493 1141 l 356 1141 l -170 -13 l -34 -13 "},"°":{"x_min":56.9375,"x_max":509.71875,"ha":575,"o":"m 280 1162 b 56 906 161 1162 56 1063 b 280 651 56 744 161 651 b 509 906 405 651 509 744 b 283 1162 509 1040 426 1162 l 280 1162 m 281 1077 b 405 904 366 1077 405 1002 b 283 734 405 804 361 734 b 159 908 208 734 159 806 b 280 1077 159 1008 206 1077 l 281 1077 "},"V":{"x_min":23.609375,"x_max":870.828125,"ha":894,"o":"m 629 1155 b 576 1133 612 1155 576 1159 b 668 720 576 1097 668 1013 b 444 268 668 472 516 268 b 248 720 411 268 248 472 b 322 1133 248 1013 322 1097 b 256 1155 322 1159 273 1155 l 98 1155 b 23 818 73 1155 23 1148 b 444 -33 23 186 416 -33 b 870 790 527 -33 870 311 b 790 1155 870 1044 822 1155 l 629 1155 "},"å":{"x_min":46.328125,"x_max":658.890625,"ha":722,"o":"m 460 272 b 375 162 460 204 457 162 b 233 286 301 162 233 208 b 401 440 233 370 320 440 b 460 333 468 440 460 381 l 460 272 m 46 254 b 404 -1 46 170 69 -1 b 658 30 528 -1 658 1 b 647 175 658 77 647 113 b 615 715 647 223 644 634 b 310 908 544 909 354 908 b 67 738 182 908 67 841 b 160 625 67 679 115 625 b 311 744 190 625 169 744 b 446 636 372 744 446 706 b 374 576 446 590 414 583 b 46 254 218 550 46 429 m 347 938 b 518 1100 443 938 518 1012 b 345 1259 518 1193 443 1259 b 176 1101 249 1259 176 1187 b 347 938 176 1011 250 938 m 347 1025 b 276 1101 303 1025 276 1061 b 346 1173 276 1140 307 1173 b 418 1102 385 1173 418 1141 b 347 1025 418 1059 392 1025 "}," ":{"x_min":0,"x_max":0,"ha":403},"0":{"x_min":45.828125,"x_max":759.71875,"ha":806,"o":"m 402 -20 b 759 562 588 -20 759 163 b 402 1147 759 961 588 1147 b 45 562 216 1147 45 961 b 402 -20 45 163 216 -20 m 402 226 b 248 584 330 226 248 312 b 402 959 248 913 333 959 b 556 584 472 959 556 913 b 402 226 556 312 475 226 "},"”":{"x_min":69.4375,"x_max":784.71875,"ha":854,"o":"m 97 1056 b 69 1030 93 1054 69 1037 b 177 905 69 1016 177 1022 b 141 800 177 848 141 805 b 152 793 141 795 148 793 b 402 1019 233 793 402 859 b 265 1176 402 1091 343 1176 b 212 1150 244 1176 227 1161 l 97 1056 m 479 1056 b 451 1030 475 1054 451 1037 b 559 905 451 1016 559 1022 b 523 800 559 848 523 805 b 534 793 523 795 530 793 b 784 1019 615 793 784 859 b 647 1176 784 1091 725 1176 b 594 1150 626 1176 609 1161 l 479 1056 "},"¾":{"x_min":40.28125,"x_max":1220.828125,"ha":1288,"o":"m 1138 1 l 1138 146 l 1220 146 l 1220 274 l 1138 274 l 1138 678 l 973 678 l 701 255 l 701 146 l 976 146 l 976 1 l 1138 1 m 976 274 l 822 274 l 820 276 l 934 424 b 976 501 948 446 961 473 l 979 498 b 976 394 976 466 976 432 l 976 274 m 436 -12 l 965 1141 l 829 1141 l 298 -12 l 436 -12 m 94 974 b 209 1010 123 994 165 1010 b 308 944 286 1010 308 976 b 173 873 308 901 248 873 l 137 873 l 137 756 l 177 756 b 323 666 261 756 323 723 b 200 583 323 619 276 583 b 69 619 150 583 93 603 l 40 489 b 238 451 75 467 163 451 b 506 656 405 451 506 537 b 359 813 506 731 441 801 l 359 817 b 486 976 427 845 486 896 b 268 1144 486 1081 393 1144 b 63 1099 176 1144 102 1123 l 94 974 "},"@":{"x_min":63.703125,"x_max":1156.765625,"ha":1213,"o":"m 820 -54 b 583 -119 748 -98 667 -119 b 187 336 367 -119 187 52 b 644 873 187 668 437 873 b 1038 473 901 873 1038 700 b 884 188 1038 263 944 188 b 837 363 834 190 815 238 l 887 652 b 691 698 842 679 765 698 b 323 295 474 698 323 525 b 497 69 323 161 395 69 b 710 223 592 69 670 140 l 715 223 b 856 69 722 127 770 69 b 1156 473 1019 69 1156 213 b 663 973 1156 738 991 973 b 63 327 288 973 63 666 b 562 -222 63 5 263 -222 b 855 -150 672 -222 758 -205 l 820 -54 m 688 413 b 570 243 670 326 623 243 b 499 345 519 243 499 288 b 659 579 499 480 581 579 b 719 568 681 579 708 573 l 688 413 "},"ö":{"x_min":29.171875,"x_max":726.390625,"ha":756,"o":"m 377 -20 b 726 445 537 -20 726 119 b 377 909 726 669 619 909 b 29 445 136 909 29 669 b 377 -20 29 119 218 -20 m 377 211 b 201 480 237 211 201 369 b 377 745 201 590 240 745 b 554 480 515 745 554 590 b 377 211 554 369 518 211 m 537 983 b 661 1094 604 983 661 1022 b 537 1205 661 1166 604 1205 b 413 1094 470 1205 413 1166 b 537 983 413 1022 470 983 m 219 983 b 343 1094 286 983 343 1022 b 219 1205 343 1166 286 1205 b 95 1094 152 1205 95 1166 b 219 983 95 1022 152 983 "},"i":{"x_min":63.890625,"x_max":305.5625,"ha":369,"o":"m 231 0 b 305 36 263 0 305 -8 b 251 613 305 48 251 263 b 268 868 251 765 268 816 b 208 888 268 884 266 888 l 131 888 b 63 459 86 888 63 934 b 137 0 63 -29 69 0 l 231 0 m 186 997 b 293 1088 241 997 293 1029 b 186 1184 293 1148 241 1184 b 79 1088 130 1184 79 1148 b 186 997 79 1029 130 997 "},"≤":{"x_min":73.609375,"x_max":737.5,"ha":806,"o":"m 730 158 l 730 305 l 195 572 l 195 575 l 729 840 l 729 987 l 79 641 l 79 504 l 730 158 m 737 -27 l 737 101 l 73 101 l 73 -27 l 737 -27 "},"Õ":{"x_min":35,"x_max":954,"ha":989,"o":"m 563 -21 b 954 420 844 -21 954 180 b 494 1176 954 777 754 1176 b 35 420 234 1176 35 777 b 425 -21 35 180 144 -21 l 563 -21 m 494 226 b 260 451 347 226 260 288 b 494 951 260 757 401 951 b 729 451 587 951 729 757 b 494 226 729 288 641 226 m 386 1473 b 210 1310 266 1473 210 1371 b 251 1291 210 1288 237 1291 b 308 1341 258 1291 253 1341 b 423 1309 340 1341 379 1326 b 574 1276 469 1292 519 1276 b 779 1445 765 1276 779 1439 b 745 1463 779 1452 772 1463 b 652 1406 716 1463 735 1406 b 491 1451 599 1406 545 1430 b 386 1473 462 1463 419 1473 "},"þ":{"x_min":63.8125,"x_max":711.109375,"ha":729,"o":"m 251 463 b 377 745 251 740 304 745 b 538 593 465 745 538 683 b 315 359 538 477 438 359 b 251 463 252 359 251 415 m 63 226 b 111 0 62 30 77 0 l 252 0 b 284 19 275 0 284 8 b 258 243 284 34 258 145 b 268 293 258 275 258 293 b 318 241 277 293 295 266 b 391 181 340 215 366 181 b 711 616 498 181 711 400 b 341 909 711 779 604 909 b 309 908 334 909 322 908 b 279 905 297 906 284 905 b 263 925 268 905 263 913 b 305 1155 263 1004 305 1143 b 262 1184 305 1176 290 1184 l 122 1184 b 63 686 91 1184 63 977 l 63 226 "},"]":{"x_min":69.4375,"x_max":451.484375,"ha":556,"o":"m 380 0 b 451 497 456 0 451 465 b 366 1176 451 562 456 1176 l 266 1176 b 69 1159 251 1176 69 1183 b 287 604 69 1051 287 1273 b 69 16 287 -97 69 125 b 266 0 69 -6 251 0 l 380 0 "},"m":{"x_min":63.421875,"x_max":1109.734375,"ha":1174,"o":"m 250 0 b 290 19 265 0 290 -4 b 251 390 290 58 251 111 b 394 725 251 597 290 725 b 508 445 508 725 508 529 b 455 13 508 313 455 34 b 504 0 455 -5 477 0 l 629 0 b 680 500 673 0 680 1 b 775 725 680 729 726 725 b 922 431 827 725 922 697 b 869 22 922 200 869 47 b 922 0 869 -2 908 0 l 1016 0 b 1109 376 1056 0 1109 -47 b 859 888 1109 554 1115 888 b 731 850 809 888 766 869 b 650 825 697 829 669 825 b 502 888 615 825 570 888 b 372 856 444 888 402 873 b 305 825 341 841 322 825 b 277 848 291 825 277 834 b 294 911 277 868 294 894 b 234 933 294 931 263 933 b 63 366 45 933 63 951 b 140 0 63 -44 93 0 l 250 0 "},"8":{"x_min":34.71875,"x_max":770.828125,"ha":806,"o":"m 395 -20 b 770 318 609 -20 770 90 b 583 627 770 518 583 570 b 713 880 583 675 713 729 b 409 1147 713 1006 613 1147 b 83 847 227 1147 83 1044 b 197 577 83 680 197 638 b 34 259 197 522 34 463 b 395 -20 34 69 212 -20 m 394 211 b 259 322 309 211 259 255 b 400 487 259 397 319 487 b 545 320 462 487 545 406 b 394 211 545 252 476 211 m 394 983 b 526 859 465 983 526 931 b 400 697 526 775 447 697 b 270 862 361 697 270 768 b 394 983 270 929 329 983 "},"ž":{"x_min":36.109375,"x_max":612.5,"ha":649,"o":"m 551 0 b 605 19 563 0 605 -1 b 544 206 605 41 569 206 b 340 163 522 206 502 163 b 283 194 300 163 283 166 b 595 680 283 333 550 594 b 612 845 611 708 612 829 b 551 888 612 894 590 888 l 133 888 b 76 870 119 888 76 894 b 134 688 76 854 105 688 b 305 725 159 688 187 725 b 368 697 322 725 368 723 b 36 38 368 656 36 373 b 105 0 36 -6 69 0 l 551 0 m 222 1208 b 193 1226 215 1213 205 1226 b 58 1172 154 1226 58 1179 b 76 1145 58 1161 68 1152 l 226 997 b 338 938 268 954 279 938 b 422 981 384 938 390 948 l 561 1130 b 591 1177 572 1141 591 1161 b 504 1226 591 1200 516 1226 b 444 1184 481 1226 459 1200 l 393 1129 b 347 1094 384 1119 361 1094 b 305 1126 334 1094 312 1119 l 222 1208 "},"R":{"x_min":69.4375,"x_max":898.609375,"ha":922,"o":"m 337 620 b 294 705 295 620 294 676 b 475 991 293 945 348 991 b 631 872 550 991 631 959 b 337 620 631 744 384 620 m 165 1155 b 69 494 141 1155 69 1180 b 145 0 69 -26 111 0 l 306 0 b 355 16 320 0 355 -6 b 304 322 355 26 304 216 b 447 456 304 400 405 456 b 638 18 527 456 638 175 b 706 0 638 -4 681 0 l 863 0 b 898 18 893 0 898 2 b 648 566 898 345 648 527 b 856 895 648 605 856 673 b 533 1155 856 1013 791 1155 l 165 1155 "},"á":{"x_min":46.328125,"x_max":658.890625,"ha":722,"o":"m 460 272 b 375 162 460 204 457 162 b 233 286 301 162 233 208 b 401 440 233 370 320 440 b 460 333 468 440 460 381 l 460 272 m 46 254 b 404 -1 46 170 69 -1 b 658 30 528 -1 658 1 b 647 175 658 77 647 113 b 615 715 647 223 644 634 b 310 908 544 909 354 908 b 67 738 182 908 67 841 b 160 625 67 679 115 625 b 311 744 190 625 169 744 b 446 636 372 744 446 706 b 374 576 446 590 414 583 b 46 254 218 550 46 429 m 315 997 b 299 961 311 990 299 970 b 317 951 299 952 308 951 b 601 1206 401 943 601 1173 b 511 1238 601 1248 535 1238 b 421 1194 449 1238 449 1245 l 315 997 "},"×":{"x_min":51,"x_max":745,"ha":806,"o":"m 743 140 l 479 443 l 745 744 l 653 829 l 406 536 l 150 827 l 57 741 l 318 441 l 51 140 l 145 58 l 396 349 l 649 57 l 743 140 "},"o":{"x_min":29.171875,"x_max":726.390625,"ha":756,"o":"m 377 -20 b 726 445 537 -20 726 119 b 377 909 726 669 619 909 b 29 445 136 909 29 669 b 377 -20 29 119 218 -20 m 377 211 b 201 480 237 211 201 369 b 377 745 201 590 240 745 b 554 480 515 745 554 590 b 377 211 554 369 518 211 "},"5":{"x_min":65.28125,"x_max":740.28125,"ha":806,"o":"m 197 1126 b 100 595 138 1126 100 805 b 181 495 100 513 145 495 b 366 563 219 495 268 563 b 537 383 469 563 537 486 b 373 226 537 287 470 226 b 173 327 227 226 213 327 b 65 112 150 327 65 123 b 348 -20 65 81 163 -20 b 740 380 576 -20 740 123 b 441 727 740 561 637 727 b 308 704 347 727 319 704 b 279 758 287 704 279 726 b 340 936 279 831 316 926 b 430 948 365 945 404 948 b 652 927 562 948 618 927 b 693 1109 677 927 693 1091 b 665 1126 693 1125 677 1126 l 197 1126 "},"õ":{"x_min":28.875,"x_max":726.125,"ha":756,"o":"m 377 -21 b 726 445 537 -21 726 119 b 377 909 726 669 619 909 b 28 445 135 909 28 669 b 377 -21 28 119 217 -21 m 377 210 b 201 480 237 210 201 369 b 377 745 201 589 239 745 b 553 480 515 745 553 589 b 377 210 553 369 517 210 m 269 1205 b 92 1042 149 1205 92 1103 b 134 1023 92 1020 120 1023 b 191 1073 141 1023 135 1073 b 306 1041 223 1073 262 1058 b 458 1008 352 1024 402 1008 b 662 1177 648 1008 662 1171 b 628 1195 662 1184 655 1195 b 535 1138 599 1195 619 1138 b 374 1183 483 1138 428 1162 b 269 1205 345 1195 302 1205 "},"7":{"x_min":83.328125,"x_max":722.265625,"ha":806,"o":"m 143 1126 b 83 1101 125 1126 83 1132 l 105 883 b 126 842 106 871 106 842 b 323 949 159 842 159 949 l 440 949 b 519 921 465 949 519 954 b 183 230 519 847 183 574 b 405 -20 183 103 268 -20 b 618 142 547 -20 618 96 b 609 153 618 147 615 153 b 566 143 598 153 588 143 b 430 310 466 143 430 224 b 688 905 430 471 491 586 b 722 1007 718 953 722 954 b 686 1126 722 1119 725 1126 l 143 1126 "},"K":{"x_min":69.46875,"x_max":859.75,"ha":906,"o":"m 651 1155 b 611 1118 619 1154 620 1148 b 308 645 544 884 338 645 b 284 733 280 645 284 718 b 352 1133 284 933 352 1131 b 305 1155 352 1159 323 1155 l 165 1155 b 69 494 141 1155 69 1180 b 145 0 69 -26 111 0 l 315 0 b 341 23 330 0 341 6 b 294 337 341 34 294 281 b 447 519 294 416 413 519 b 600 55 470 519 593 370 b 630 0 600 40 595 0 l 800 0 b 859 29 830 0 859 -8 b 593 687 859 436 593 656 b 829 1138 593 715 829 931 b 784 1155 829 1161 798 1155 l 651 1155 "},",":{"x_min":34.71875,"x_max":368.0625,"ha":403,"o":"m 62 175 b 34 148 58 172 34 155 b 143 23 34 134 143 140 b 106 -81 143 -33 106 -76 b 118 -88 106 -86 113 -88 b 368 137 198 -88 368 -22 b 230 294 368 209 308 294 b 177 268 209 294 193 279 l 62 175 "},"d":{"x_min":29.171875,"x_max":689.078125,"ha":753,"o":"m 370 202 b 216 447 252 202 216 351 b 412 777 216 700 352 777 b 501 516 463 777 501 761 b 370 202 501 416 520 202 m 645 0 b 688 497 694 0 688 465 b 631 1184 688 562 694 1184 l 487 1184 b 438 1165 473 1184 438 1184 b 473 950 438 1112 473 1062 b 441 877 473 927 469 877 b 362 909 422 877 391 909 b 29 418 240 909 29 736 b 320 0 29 137 165 0 l 645 0 "},"¨":{"x_min":111.109375,"x_max":676.390625,"ha":788,"o":"m 552 983 b 676 1094 619 983 676 1022 b 552 1205 676 1166 619 1205 b 429 1094 486 1205 429 1166 b 552 983 429 1022 486 983 m 234 983 b 358 1094 301 983 358 1022 b 234 1205 358 1166 301 1205 b 111 1094 168 1205 111 1166 b 234 983 111 1022 168 983 "},"Ô":{"x_min":34.71875,"x_max":954.171875,"ha":989,"o":"m 563 -20 b 954 420 844 -20 954 180 b 494 1176 954 777 754 1176 b 34 420 234 1176 34 777 b 425 -20 34 180 144 -20 l 563 -20 m 494 226 b 259 451 347 226 259 288 b 494 951 259 758 401 951 b 729 451 587 951 729 758 b 494 226 729 288 641 226 m 620 1456 b 508 1515 579 1500 568 1515 b 425 1472 462 1515 456 1505 l 286 1323 b 255 1276 275 1312 255 1293 b 343 1227 255 1254 330 1227 b 402 1269 365 1227 387 1254 l 454 1325 b 500 1359 462 1334 486 1359 b 541 1327 512 1359 534 1334 l 625 1245 b 654 1227 631 1240 641 1227 b 788 1281 693 1227 788 1275 b 770 1308 788 1293 779 1301 l 620 1456 "},"E":{"x_min":69.4375,"x_max":816.671875,"ha":829,"o":"m 765 0 b 816 20 781 0 816 -5 b 702 269 816 34 723 269 b 447 177 669 269 584 177 b 272 369 330 177 272 258 b 445 558 272 506 375 558 b 566 530 500 558 552 530 b 661 758 583 530 661 756 b 598 787 661 781 615 787 b 338 722 481 787 383 722 b 294 801 300 722 294 772 b 491 991 294 934 395 991 b 693 926 627 991 669 926 b 800 1131 711 926 800 1120 b 733 1155 800 1159 750 1155 l 186 1155 b 69 327 145 1155 69 513 b 127 0 76 45 54 -2 l 765 0 "},"Y":{"x_min":22.21875,"x_max":872.21875,"ha":894,"o":"m 701 1155 b 645 1131 681 1155 645 1161 b 658 1018 645 1120 658 1062 b 459 633 658 852 500 633 b 281 1011 418 633 281 812 b 294 1119 281 1034 294 1108 b 215 1155 294 1158 241 1155 l 104 1155 b 22 1050 41 1155 22 1154 b 338 415 22 681 338 463 b 245 80 338 368 245 247 b 288 0 245 52 251 0 l 450 0 b 513 26 470 0 513 -2 b 505 115 513 55 505 84 b 872 1081 505 554 872 644 b 805 1155 872 1136 861 1155 l 701 1155 "},"\"":{"x_min":34.71875,"x_max":427.78125,"ha":463,"o":"m 102 1176 b 34 1094 61 1176 34 1152 b 62 780 34 1061 52 884 b 102 737 65 758 81 737 b 143 780 123 737 140 758 b 170 1094 152 884 170 1061 b 102 1176 170 1152 144 1176 m 359 1176 b 291 1094 318 1176 291 1152 b 319 780 291 1061 309 884 b 359 737 322 758 338 737 b 400 780 380 737 397 758 b 427 1094 409 884 427 1061 b 359 1176 427 1152 401 1176 "},"‹":{"x_min":69.4375,"x_max":427.78125,"ha":497,"o":"m 95 509 b 69 438 80 488 69 470 b 95 368 69 406 80 388 l 247 138 b 290 97 255 126 270 97 b 359 133 304 97 322 109 b 427 193 401 159 427 172 b 393 252 427 213 406 236 l 273 404 b 252 438 266 412 252 427 b 273 473 252 450 266 465 l 393 625 b 427 684 406 641 427 663 b 359 744 427 705 401 718 b 290 780 322 768 304 780 b 247 738 270 780 255 751 l 95 509 "},"˙":{"x_min":223.609375,"x_max":470.828125,"ha":694,"o":"m 347 983 b 470 1094 413 983 470 1022 b 347 1205 470 1166 413 1205 b 223 1094 280 1205 223 1166 b 347 983 223 1022 280 983 "},"ê":{"x_min":29.171875,"x_max":683.328125,"ha":729,"o":"m 380 -20 b 683 256 547 -20 683 80 b 658 340 683 268 679 340 b 411 166 638 340 638 166 b 236 279 341 166 236 213 b 683 659 236 423 683 361 b 401 909 683 823 554 909 b 29 406 215 909 29 743 b 380 -20 29 184 131 -20 m 394 745 b 511 640 447 745 511 708 b 241 513 511 569 258 513 b 216 544 223 513 216 529 b 394 745 216 625 281 745 m 463 1188 b 351 1247 422 1231 411 1247 b 268 1204 305 1247 300 1237 l 129 1055 b 98 1008 118 1044 98 1025 b 186 959 98 986 173 959 b 245 1001 208 959 230 986 l 297 1056 b 343 1091 305 1066 329 1091 b 384 1059 355 1091 377 1066 l 468 977 b 497 959 475 972 484 959 b 631 1013 536 959 631 1006 b 613 1040 631 1025 622 1033 l 463 1188 "},"Ï":{"x_min":-55.5625,"x_max":509.71875,"ha":454,"o":"m 331 0 l 359 0 b 380 15 372 0 380 1 b 311 619 380 34 311 263 b 384 1133 311 887 384 1119 b 331 1155 384 1159 350 1155 l 181 1155 b 86 494 158 1155 86 1180 b 162 0 86 -26 127 0 l 331 0 m 386 1251 b 509 1362 452 1251 509 1290 b 386 1473 509 1434 452 1473 b 262 1362 319 1473 262 1434 b 386 1251 262 1290 319 1251 m 68 1251 b 191 1362 134 1251 191 1290 b 68 1473 191 1434 134 1473 b -55 1362 1 1473 -55 1434 b 68 1251 -55 1290 1 1251 "},"„":{"x_min":69.4375,"x_max":784.71875,"ha":854,"o":"m 97 175 b 69 148 93 172 69 155 b 177 23 69 134 177 140 b 141 -81 177 -33 141 -76 b 152 -88 141 -86 148 -88 b 402 137 233 -88 402 -22 b 265 294 402 209 343 294 b 212 268 244 294 227 279 l 97 175 m 479 175 b 451 148 475 172 451 155 b 559 23 451 134 559 140 b 523 -81 559 -33 523 -76 b 534 -88 523 -86 530 -88 b 784 137 615 -88 784 -22 b 647 294 784 209 725 294 b 594 268 626 294 609 279 l 479 175 "},"Â":{"x_min":45.828125,"x_max":923.609375,"ha":969,"o":"m 822 0 b 923 333 863 0 923 -37 b 519 1176 923 977 565 1176 b 45 305 458 1176 45 900 b 136 0 45 125 65 0 l 334 0 b 361 9 352 0 361 1 b 270 258 361 30 270 148 b 598 438 270 416 472 438 b 720 352 661 438 720 415 b 613 16 720 194 613 55 b 666 0 613 -4 654 0 l 822 0 m 525 938 b 680 672 577 938 680 758 b 609 626 680 633 658 626 b 327 590 487 626 352 590 b 301 616 311 590 301 600 b 525 938 301 718 450 938 m 611 1443 b 498 1501 569 1486 558 1501 b 415 1458 452 1501 447 1491 l 276 1309 b 245 1262 265 1298 245 1279 b 333 1213 245 1240 320 1213 b 393 1255 355 1213 377 1240 l 444 1311 b 490 1345 452 1320 476 1345 b 531 1313 502 1345 525 1320 l 615 1231 b 644 1213 622 1226 631 1213 b 779 1268 683 1213 779 1261 b 761 1294 779 1279 769 1287 l 611 1443 "},"Í":{"x_min":86.109375,"x_max":452.78125,"ha":454,"o":"m 331 0 l 359 0 b 380 15 372 0 380 1 b 311 619 380 34 311 263 b 384 1133 311 887 384 1119 b 331 1155 384 1159 350 1155 l 181 1155 b 86 494 158 1155 86 1180 b 162 0 86 -26 127 0 l 331 0 m 166 1266 b 150 1230 162 1259 150 1240 b 168 1220 150 1222 159 1220 b 452 1476 252 1212 452 1443 b 362 1508 452 1518 386 1508 b 272 1463 300 1508 300 1515 l 166 1266 "},"´":{"x_min":162.5,"x_max":465.28125,"ha":535,"o":"m 179 998 b 162 962 175 991 162 972 b 180 952 162 954 172 952 b 465 1208 265 944 465 1175 b 375 1240 465 1250 398 1240 b 284 1195 312 1240 312 1247 l 179 998 "},"ì":{"x_min":-12.5,"x_max":305.5625,"ha":369,"o":"m 231 0 b 305 36 263 0 305 -8 b 251 613 305 48 251 263 b 268 868 251 765 268 816 b 208 888 268 884 266 888 l 131 888 b 63 459 86 888 63 934 b 137 0 63 -29 69 0 l 231 0 m 168 1195 b 77 1240 140 1247 140 1240 b -12 1208 54 1240 -12 1250 b 272 952 -12 1175 187 944 b 290 962 280 952 290 954 b 273 998 290 972 277 991 l 168 1195 "},"±":{"x_min":69.4375,"x_max":734.71875,"ha":806,"o":"m 727 505 l 727 636 l 465 636 l 465 944 l 334 944 l 334 636 l 69 636 l 69 505 l 334 505 l 334 183 l 465 183 l 465 505 l 727 505 m 734 -12 l 734 115 l 75 115 l 75 -12 l 734 -12 "},"Ú":{"x_min":45.828125,"x_max":888.890625,"ha":935,"o":"m 670 1155 b 618 1137 658 1155 618 1159 b 686 625 618 1112 686 986 b 466 226 686 244 536 226 b 270 638 384 226 270 323 b 340 1137 270 958 340 1105 b 309 1155 340 1155 323 1155 l 116 1155 b 45 595 98 1155 45 1040 b 466 -20 45 180 205 -20 b 888 633 763 -20 888 225 b 806 1155 888 1133 834 1155 l 670 1155 m 420 1266 b 404 1230 416 1259 404 1240 b 422 1220 404 1222 413 1220 b 706 1476 506 1212 706 1443 b 616 1508 706 1518 640 1508 b 526 1463 554 1508 554 1515 l 420 1266 "},"|":{"x_min":143.0625,"x_max":327.78125,"ha":474,"o":"m 143 1313 l 143 -437 l 327 -437 l 327 1313 l 143 1313 "},"§":{"x_min":75.140625,"x_max":773.828125,"ha":844,"o":"m 696 1133 b 471 1183 636 1163 560 1183 b 140 915 280 1183 140 1095 b 206 759 140 858 167 801 b 75 558 118 718 75 633 b 339 284 75 409 175 336 b 521 159 468 243 521 222 b 371 59 521 91 447 59 b 164 120 289 59 203 94 l 125 -37 b 394 -101 194 -83 294 -101 b 727 173 557 -101 727 -8 b 661 327 727 227 700 297 b 773 538 729 384 773 451 b 530 811 773 663 700 741 b 347 934 406 852 347 883 b 489 1019 347 981 397 1019 b 662 976 555 1019 623 1000 l 696 1133 m 263 593 b 317 681 263 633 283 661 b 464 627 356 663 414 644 b 593 497 543 601 593 559 b 550 408 593 459 578 423 b 400 472 523 426 467 447 b 263 591 304 504 263 536 l 263 593 "},"Ý":{"x_min":22.21875,"x_max":872.21875,"ha":894,"o":"m 701 1155 b 645 1131 681 1155 645 1161 b 658 1018 645 1120 658 1062 b 459 633 658 852 500 633 b 281 1011 418 633 281 812 b 294 1119 281 1034 294 1108 b 215 1155 294 1158 241 1155 l 104 1155 b 22 1050 41 1155 22 1154 b 338 415 22 681 338 463 b 245 80 338 368 245 247 b 288 0 245 52 251 0 l 450 0 b 513 26 470 0 513 -2 b 505 115 513 55 505 84 b 872 1081 505 554 872 644 b 805 1155 872 1136 861 1155 l 701 1155 m 429 1266 b 412 1230 425 1259 412 1240 b 430 1220 412 1222 422 1220 b 715 1476 515 1212 715 1443 b 625 1508 715 1518 648 1508 b 534 1463 562 1508 562 1515 l 429 1266 "},"b":{"x_min":65.09375,"x_max":715.28125,"ha":744,"o":"m 359 231 b 252 526 323 231 252 226 b 370 777 252 729 272 777 b 527 494 429 777 527 722 b 359 231 527 391 495 231 m 122 1184 b 65 497 59 1184 65 562 b 108 0 65 465 59 0 l 354 0 b 573 108 459 0 533 61 b 715 511 675 223 715 351 b 431 909 715 804 550 909 b 351 893 402 909 375 900 b 294 877 329 884 309 877 b 263 922 268 877 263 900 b 305 1154 263 1004 305 1143 b 255 1184 305 1184 272 1184 l 122 1184 "},"q":{"x_min":18.0625,"x_max":665.28125,"ha":729,"o":"m 413 359 b 190 593 290 359 190 477 b 351 745 190 683 263 745 b 477 463 425 745 477 740 b 413 359 477 415 476 359 m 602 0 b 665 226 645 0 665 -12 l 665 634 b 406 909 665 930 643 909 b 18 616 95 909 18 763 b 337 181 18 400 230 181 b 411 241 362 181 388 215 b 461 293 433 266 451 293 b 470 243 475 293 470 268 b 444 19 470 145 444 34 b 488 0 444 -2 473 0 l 602 0 "},"Ω":{"x_min":45.828125,"x_max":951.390625,"ha":1003,"o":"m 231 181 l 45 181 l 45 0 l 433 0 l 433 131 b 286 583 358 186 286 347 b 501 952 286 800 368 952 b 709 593 641 952 709 790 b 663 286 709 462 691 361 b 563 131 637 209 601 159 l 563 0 l 951 0 l 951 181 l 762 181 l 762 186 b 929 645 845 280 929 447 b 504 1143 929 862 794 1143 b 66 630 238 1143 66 902 b 231 186 66 434 150 281 l 231 181 "},"Ö":{"x_min":34.71875,"x_max":954.171875,"ha":989,"o":"m 563 -20 b 954 420 844 -20 954 180 b 494 1176 954 777 754 1176 b 34 420 234 1176 34 777 b 425 -20 34 180 144 -20 l 563 -20 m 494 226 b 259 451 347 226 259 288 b 494 951 259 758 401 951 b 729 451 587 951 729 758 b 494 226 729 288 641 226 m 668 1251 b 791 1362 734 1251 791 1290 b 668 1473 791 1434 734 1473 b 544 1362 601 1473 544 1434 b 668 1251 544 1290 601 1251 m 350 1251 b 473 1362 416 1251 473 1290 b 350 1473 473 1434 416 1473 b 226 1362 283 1473 226 1434 b 350 1251 226 1290 283 1251 "},"ﬂ":{"x_min":11.34375,"x_max":790.578125,"ha":825,"o":"m 735 0 b 786 16 750 0 786 -6 b 733 604 786 34 733 222 b 790 1137 733 950 791 1115 b 416 1184 791 1166 701 1184 b 176 1044 289 1184 203 1130 b 94 888 157 982 157 888 b 11 770 41 888 11 876 b 28 727 11 745 9 727 b 82 744 43 727 57 744 b 132 623 144 744 132 665 b 128 415 128 554 128 484 b 173 0 129 -41 153 0 l 322 0 b 366 25 347 0 366 -5 b 315 595 366 43 315 412 b 389 744 315 650 312 744 b 453 732 414 744 441 732 b 482 804 482 732 482 784 b 428 888 482 851 480 888 b 375 882 410 888 393 882 b 340 918 354 882 340 898 b 454 1007 340 950 347 1007 b 564 966 507 1007 564 1020 b 546 497 564 933 546 929 b 593 0 546 465 544 0 l 735 0 "},"z":{"x_min":36.109375,"x_max":612.5,"ha":649,"o":"m 551 0 b 605 19 563 0 605 -1 b 544 206 605 41 569 206 b 340 163 522 206 502 163 b 283 194 300 163 283 166 b 595 680 283 333 550 594 b 612 845 611 708 612 829 b 551 888 612 894 590 888 l 133 888 b 76 870 119 888 76 894 b 134 688 76 854 105 688 b 305 725 159 688 187 725 b 368 697 322 725 368 723 b 36 38 368 656 36 373 b 105 0 36 -6 69 0 l 551 0 "},"™":{"x_min":6.9375,"x_max":1343.0625,"ha":1389,"o":"m 787 463 b 820 475 798 463 820 460 b 765 855 820 487 765 637 b 791 974 765 871 762 974 b 844 871 805 974 834 891 b 970 623 925 700 894 623 b 1088 871 1047 623 1012 700 b 1147 974 1097 892 1131 974 b 1175 855 1177 974 1175 871 b 1119 475 1175 637 1119 487 b 1169 463 1119 460 1141 463 l 1279 463 b 1323 478 1306 463 1318 460 b 1343 759 1338 521 1343 705 l 1334 1007 b 1312 1130 1331 1038 1325 1103 b 1266 1156 1305 1148 1297 1156 l 1201 1156 b 1101 1100 1166 1156 1152 1157 b 987 932 1006 992 1001 932 b 879 1100 969 932 963 992 b 787 1156 834 1156 822 1156 l 708 1156 b 659 1130 675 1156 668 1148 b 637 1007 648 1103 640 1038 l 629 759 b 648 478 629 705 633 521 b 695 463 654 460 666 463 l 787 463 m 341 463 b 394 477 352 463 394 459 b 345 812 394 492 345 596 b 400 1037 345 888 352 1037 b 516 978 465 1037 501 978 b 570 1094 527 978 570 1057 b 297 1169 570 1132 443 1169 b 44 1123 175 1169 52 1138 b 6 970 30 1099 6 996 b 19 950 6 946 11 950 b 202 1037 34 950 147 1037 b 222 1014 216 1037 222 1030 b 181 671 222 995 181 869 b 245 463 181 430 220 463 l 341 463 "},"ã":{"x_min":46.203125,"x_max":659,"ha":722,"o":"m 460 272 b 375 162 460 204 457 162 b 233 286 301 162 233 208 b 401 440 233 371 320 440 b 460 333 468 440 460 382 l 460 272 m 46 254 b 404 -1 46 171 69 -1 b 659 30 528 -1 659 1 b 647 175 659 77 647 114 b 615 716 647 223 645 635 b 310 909 545 910 354 909 b 67 739 182 909 67 842 b 160 625 67 679 115 625 b 311 745 190 625 169 745 b 446 636 372 745 446 707 b 374 577 446 590 414 583 b 46 254 218 550 46 429 m 253 1205 b 76 1042 133 1205 76 1103 b 118 1023 76 1020 104 1023 b 175 1073 125 1023 119 1073 b 290 1041 207 1073 246 1058 b 442 1008 336 1024 386 1008 b 646 1177 632 1008 646 1171 b 613 1195 646 1184 639 1195 b 520 1138 583 1195 603 1138 b 358 1183 467 1138 413 1162 b 253 1205 329 1195 286 1205 "},"æ":{"x_min":46.328125,"x_max":1095.109375,"ha":1140,"o":"m 806 746 b 922 640 859 746 922 708 b 653 514 922 569 670 514 b 628 544 635 514 628 529 b 806 746 628 625 693 746 m 460 274 b 375 164 460 206 457 164 b 233 288 301 164 233 210 b 401 442 233 372 320 442 b 460 335 468 442 460 383 l 460 274 m 46 256 b 379 1 46 113 104 1 b 604 44 607 1 589 20 b 792 -19 671 -8 739 -19 b 1095 257 959 -19 1095 81 b 1070 340 1095 268 1090 340 b 822 167 1050 340 1050 167 b 647 279 753 167 647 214 b 1095 660 647 424 1095 361 b 813 909 1095 823 965 909 b 572 796 711 909 628 859 b 310 909 515 866 433 909 b 67 740 182 909 67 843 b 160 626 67 680 115 626 b 311 746 190 626 169 746 b 446 637 372 746 446 708 b 374 578 446 592 414 585 b 46 256 218 551 46 431 "},"®":{"x_min":45.828125,"x_max":1243.0625,"ha":1289,"o":"m 577 605 b 548 656 550 605 548 638 b 666 829 548 800 584 829 b 769 756 715 829 769 808 b 577 605 769 679 608 605 m 447 929 b 411 902 426 929 419 920 b 388 779 398 876 391 811 l 380 531 b 400 250 380 477 384 294 b 434 236 405 233 416 236 l 559 236 b 591 245 568 236 591 231 b 558 429 591 251 558 365 b 651 509 558 475 623 509 b 769 245 680 509 752 381 b 805 236 773 233 788 236 l 938 236 b 961 245 956 236 961 237 b 781 575 961 426 781 556 b 933 773 781 598 933 644 b 706 929 933 844 891 929 l 447 929 m 644 -20 b 1243 577 1025 -20 1243 197 b 644 1176 1243 958 1025 1176 b 45 577 263 1176 45 958 b 644 -20 45 197 263 -20 m 644 111 b 177 577 352 111 177 286 b 644 1044 177 869 352 1044 b 1111 577 936 1044 1111 869 b 644 111 1111 286 936 111 "},"É":{"x_min":69.4375,"x_max":816.671875,"ha":829,"o":"m 765 0 b 816 20 781 0 816 -5 b 702 269 816 34 723 269 b 447 177 669 269 584 177 b 272 369 330 177 272 258 b 445 558 272 506 375 558 b 566 530 500 558 552 530 b 661 758 583 530 661 756 b 598 787 661 781 615 787 b 338 722 481 787 383 722 b 294 801 300 722 294 772 b 491 991 294 934 395 991 b 693 926 627 991 669 926 b 800 1131 711 926 800 1120 b 733 1155 800 1159 750 1155 l 186 1155 b 69 327 145 1155 69 513 b 127 0 76 45 54 -2 l 765 0 m 409 1266 b 393 1230 405 1259 393 1240 b 411 1220 393 1222 402 1220 b 695 1476 495 1212 695 1443 b 605 1508 695 1518 629 1508 b 515 1463 543 1508 543 1515 l 409 1266 "},"~":{"x_min":53,"x_max":750.21875,"ha":806,"o":"m 675 572 b 548 462 637 510 604 462 b 425 519 508 462 476 487 b 269 574 390 539 343 574 b 53 408 175 574 96 500 l 129 341 b 259 453 162 394 196 453 b 383 400 307 453 340 429 b 546 339 450 357 487 339 b 750 507 632 339 707 411 l 675 572 "},"³":{"x_min":23.609375,"x_max":462.5,"ha":486,"o":"m 100 1126 b 55 1108 83 1126 55 1130 b 94 965 55 1090 80 965 b 237 994 118 965 186 994 b 275 970 252 994 275 993 b 122 805 275 947 122 834 b 154 788 122 793 143 788 b 298 670 241 781 298 748 b 225 605 298 641 276 605 b 118 665 163 605 137 665 b 23 520 109 665 23 527 b 227 427 23 511 97 427 b 462 665 375 427 462 534 b 315 858 462 826 315 837 b 451 1102 315 877 451 966 b 398 1126 451 1131 420 1126 l 100 1126 "},"¡":{"x_min":69.4375,"x_max":380.5625,"ha":451,"o":"m 223 1176 b 69 1022 137 1176 69 1106 b 222 870 69 938 138 870 b 380 1023 309 870 380 937 b 223 1176 380 1109 309 1176 m 302 0 b 380 202 358 0 380 -25 b 254 786 380 352 318 786 b 156 766 216 786 156 780 b 179 433 156 738 179 572 b 69 26 179 238 69 48 b 118 0 69 2 100 0 l 302 0 "},"[":{"x_min":104.078125,"x_max":486.109375,"ha":556,"o":"m 288 0 b 480 16 304 0 480 -6 b 268 604 480 125 268 -97 b 486 1159 268 1273 486 1051 b 288 1176 486 1183 304 1176 l 188 1176 b 104 497 98 1176 104 562 b 175 0 104 465 98 0 l 288 0 "},"L":{"x_min":69.4375,"x_max":752.78125,"ha":765,"o":"m 693 0 b 752 20 709 0 752 -6 b 672 295 752 27 698 295 b 431 177 637 295 559 177 b 272 415 355 177 272 223 b 433 1127 272 798 433 1097 b 406 1155 433 1152 416 1155 l 186 1155 b 69 327 145 1155 69 513 b 127 0 76 45 54 -2 l 693 0 "}," ":{"x_min":0,"x_max":0,"ha":403},"∑":{"x_min":38,"x_max":788,"ha":815,"o":"m 788 -155 l 788 54 l 292 54 l 292 58 l 617 530 l 329 934 l 329 938 l 765 938 l 765 1126 l 46 1126 l 46 968 l 376 488 l 38 -8 l 38 -155 l 788 -155 "},"%":{"x_min":63.890625,"x_max":1038.890625,"ha":1103,"o":"m 825 143 b 743 268 772 143 743 205 b 825 427 743 331 769 427 b 906 301 877 427 906 363 b 825 143 906 237 880 143 m 843 1045 b 880 1138 862 1090 880 1122 b 823 1176 880 1168 844 1176 b 652 1004 731 1176 715 1168 l 320 138 b 276 1 309 111 276 27 b 305 -20 276 -13 291 -20 b 418 81 379 -20 402 48 l 843 1045 m 825 -20 b 1038 254 968 -20 1038 127 b 825 527 1038 379 969 527 b 611 254 681 527 611 379 b 825 -20 611 127 680 -20 m 277 598 b 491 873 420 598 491 747 b 277 1147 491 998 422 1147 b 63 873 134 1147 63 998 b 277 598 63 747 133 598 m 277 762 b 195 887 225 762 195 825 b 277 1047 195 951 222 1047 b 359 920 330 1047 359 983 b 277 762 359 856 333 762 "},"P":{"x_min":69.4375,"x_max":866.671875,"ha":867,"o":"m 337 593 b 294 656 297 593 294 623 b 475 991 293 976 375 991 b 641 863 558 991 641 959 b 337 593 641 763 409 593 m 165 1155 b 69 494 141 1155 69 1180 b 145 0 69 -26 111 0 l 330 0 b 372 12 340 0 372 -4 b 323 306 372 20 323 190 b 866 908 323 481 866 536 b 591 1155 866 990 819 1155 l 165 1155 "},"∏":{"x_min":38.890625,"x_max":1031.953125,"ha":1074,"o":"m 1031 922 l 1031 1126 l 38 1126 l 38 922 l 180 922 l 180 -155 l 395 -155 l 395 922 l 676 922 l 676 -155 l 891 -155 l 891 922 l 1031 922 "},"À":{"x_min":45.828125,"x_max":923.609375,"ha":969,"o":"m 822 0 b 923 333 863 0 923 -37 b 519 1176 923 977 565 1176 b 45 305 458 1176 45 900 b 136 0 45 125 65 0 l 334 0 b 361 9 352 0 361 1 b 270 258 361 30 270 148 b 598 438 270 416 472 438 b 720 352 661 438 720 415 b 613 16 720 194 613 55 b 666 0 613 -4 654 0 l 822 0 m 525 938 b 680 672 577 938 680 758 b 609 626 680 633 658 626 b 327 590 487 626 352 590 b 301 616 311 590 301 600 b 525 938 301 718 450 938 m 468 1463 b 377 1508 440 1515 440 1508 b 287 1476 354 1508 287 1518 b 572 1220 287 1443 487 1212 b 590 1230 580 1220 590 1222 b 573 1266 590 1240 577 1259 l 468 1463 "},"_":{"x_min":-34.71875,"x_max":729.171875,"ha":694,"o":"m 651 -270 b 729 -131 705 -270 729 -145 b 665 -106 729 -100 687 -106 l 43 -106 b -34 -245 -11 -106 -34 -231 b 29 -270 -34 -277 6 -270 l 651 -270 "},"ñ":{"x_min":64.171875,"x_max":702.765625,"ha":767,"o":"m 612 0 b 702 517 659 0 702 -28 b 502 888 702 883 541 888 b 326 831 413 888 350 831 b 305 858 312 831 305 844 b 318 908 305 877 318 894 b 219 933 318 939 268 933 b 64 342 112 933 64 971 b 136 0 64 -23 85 0 l 254 0 b 291 17 268 0 291 -1 b 251 414 291 34 251 248 b 412 724 251 690 359 724 b 515 502 506 724 515 601 b 444 21 515 220 444 35 b 493 0 444 -4 475 0 l 612 0 m 261 1205 b 85 1042 141 1205 85 1103 b 126 1023 85 1020 112 1023 b 183 1073 133 1023 128 1073 b 298 1041 215 1073 254 1058 b 450 1008 344 1024 394 1008 b 654 1177 640 1008 654 1171 b 620 1195 654 1184 647 1195 b 527 1138 591 1195 611 1138 b 366 1183 475 1138 420 1162 b 261 1205 337 1195 294 1205 "},"+":{"x_min":69.4375,"x_max":734.71875,"ha":806,"o":"m 734 391 l 734 522 l 468 522 l 468 844 l 338 844 l 338 522 l 69 522 l 69 391 l 338 391 l 338 51 l 468 51 l 468 391 l 734 391 "},"‚":{"x_min":69.4375,"x_max":402.78125,"ha":472,"o":"m 97 175 b 69 148 93 172 69 155 b 177 23 69 134 177 140 b 141 -81 177 -33 141 -76 b 152 -88 141 -86 148 -88 b 402 137 233 -88 402 -22 b 265 294 402 209 343 294 b 212 268 244 294 227 279 l 97 175 "},"½":{"x_min":39.046875,"x_max":1182.078125,"ha":1258,"o":"m 351 -13 l 880 1140 l 744 1140 l 215 -13 l 351 -13 m 351 458 l 351 1134 l 190 1134 l 39 1056 l 75 931 l 171 979 l 175 979 l 175 458 l 351 458 m 721 0 l 1182 0 l 1182 148 l 945 148 l 945 152 l 983 177 b 1173 483 1090 277 1173 351 b 947 683 1173 605 1080 683 b 727 619 852 683 766 648 l 768 491 b 893 536 794 511 850 536 b 990 454 959 536 990 494 b 825 215 990 394 945 333 l 721 106 l 721 0 "},"Æ":{"x_min":45.828125,"x_max":1452.78125,"ha":1465,"o":"m 525 939 b 680 672 577 939 680 765 b 609 626 680 633 658 626 b 327 590 487 626 352 590 b 301 616 311 590 301 600 b 525 939 301 718 450 939 m 334 0 b 361 9 352 0 361 1 b 270 258 361 30 270 148 b 598 439 270 416 472 439 b 702 352 661 439 702 422 b 613 16 702 152 613 55 b 666 0 613 -3 654 0 l 1401 0 b 1452 21 1418 0 1452 -5 b 1338 269 1452 34 1359 269 b 1083 177 1305 269 1220 177 b 905 369 966 177 905 258 b 1081 558 905 507 1011 558 b 1202 530 1136 558 1188 530 b 1297 758 1219 530 1297 757 b 1234 787 1297 782 1251 787 b 947 722 1118 787 1019 722 b 904 801 908 722 904 772 b 1127 991 904 934 1031 991 b 1329 926 1263 991 1305 926 b 1436 1132 1347 926 1436 1121 b 1369 1156 1436 1160 1386 1156 l 855 1156 b 748 983 793 1156 787 1164 b 519 1176 719 1035 569 1176 b 45 305 458 1176 45 900 b 136 0 45 125 65 0 l 334 0 "},"Ë":{"x_min":69.4375,"x_max":816.671875,"ha":829,"o":"m 765 0 b 816 20 781 0 816 -5 b 702 269 816 34 723 269 b 447 177 669 269 584 177 b 272 369 330 177 272 258 b 445 558 272 506 375 558 b 566 530 500 558 552 530 b 661 758 583 530 661 756 b 598 787 661 781 615 787 b 338 722 481 787 383 722 b 294 801 300 722 294 772 b 491 991 294 934 395 991 b 693 926 627 991 669 926 b 800 1131 711 926 800 1120 b 733 1155 800 1159 750 1155 l 186 1155 b 69 327 145 1155 69 513 b 127 0 76 45 54 -2 l 765 0 m 573 1251 b 697 1362 640 1251 697 1290 b 573 1473 697 1434 640 1473 b 450 1362 506 1473 450 1434 b 573 1251 450 1290 506 1251 m 255 1251 b 379 1362 322 1251 379 1290 b 255 1473 379 1434 322 1473 b 131 1362 188 1473 131 1434 b 255 1251 131 1290 188 1251 "},"'":{"x_min":86.109375,"x_max":222.21875,"ha":308,"o":"m 154 1176 b 86 1094 112 1176 86 1152 b 113 780 86 1061 104 884 b 154 737 116 758 133 737 b 194 780 175 737 191 758 b 222 1094 204 884 222 1061 b 154 1176 222 1152 195 1176 "},"Š":{"x_min":45.5625,"x_max":851.125,"ha":897,"o":"m 677 863 b 788 1029 716 863 788 990 b 444 1176 788 1069 645 1176 b 83 861 162 1176 83 977 b 420 511 83 743 116 605 b 626 343 501 486 626 444 b 428 211 626 256 534 211 b 130 493 130 211 153 493 b 45 305 116 493 45 423 b 442 -20 45 84 245 -20 b 851 338 735 -20 851 177 b 499 708 851 470 791 611 b 285 873 423 734 285 773 b 444 988 285 954 374 988 b 677 863 588 988 642 863 m 345 1476 b 316 1494 338 1481 328 1494 b 181 1440 277 1494 181 1447 b 199 1413 181 1429 191 1420 l 349 1265 b 462 1206 391 1222 402 1206 b 545 1250 508 1206 513 1216 l 684 1398 b 715 1445 695 1409 715 1429 b 627 1494 715 1468 640 1494 b 567 1452 605 1494 583 1468 l 516 1397 b 470 1362 508 1387 484 1362 b 428 1394 458 1362 435 1387 l 345 1476 "},"ª":{"x_min":34.71875,"x_max":502.78125,"ha":556,"o":"m 331 794 b 280 755 331 779 326 755 b 198 802 233 755 198 775 b 298 883 198 841 244 883 b 331 831 337 883 331 861 l 331 794 m 300 591 b 502 611 380 591 502 593 b 495 729 502 638 495 661 b 477 1094 495 758 493 1065 b 206 1184 416 1206 268 1184 b 48 1075 123 1184 48 1136 b 141 997 48 1038 80 997 b 238 1052 161 997 175 1052 b 323 1012 279 1052 323 1041 b 266 983 323 986 293 987 b 34 783 165 966 34 888 b 300 591 34 733 50 591 "},"Œ":{"x_min":34.71875,"x_max":1483.328125,"ha":1496,"o":"m 494 226 b 259 450 347 226 259 288 b 494 950 259 757 401 950 b 729 450 587 950 729 757 b 494 226 729 288 641 226 m 563 -21 b 747 30 620 -21 690 -12 b 825 0 747 0 800 0 l 1431 0 b 1483 20 1448 0 1483 -5 b 1369 269 1483 34 1390 269 b 1113 177 1336 269 1251 177 b 931 369 997 177 931 258 b 1112 557 931 506 1041 557 b 1233 530 1166 557 1219 530 b 1327 757 1250 530 1327 756 b 1265 786 1327 781 1281 786 b 977 721 1148 786 1050 721 b 934 800 938 721 934 771 b 1158 991 934 934 1062 991 b 1359 925 1294 991 1336 925 b 1466 1131 1377 925 1466 1120 b 1400 1155 1466 1159 1416 1155 l 886 1155 b 781 1000 823 1155 818 1163 b 494 1176 700 1096 620 1176 b 34 420 234 1176 34 777 b 425 -21 34 180 144 -21 l 563 -21 "},"˛":{"x_min":61.109375,"x_max":522.21875,"ha":556,"o":"m 61 -165 b 240 -270 61 -216 145 -270 b 522 -175 452 -270 522 -195 b 308 -83 522 -162 308 -197 b 347 -8 308 -41 330 -15 l 347 1 b 61 -165 181 1 61 -50 "},"ð":{"x_min":28.8125,"x_max":726.03125,"ha":756,"o":"m 201 480 b 377 745 201 590 239 745 b 553 480 514 745 553 590 b 377 211 553 369 517 211 b 201 480 237 211 201 369 m 217 940 l 381 1011 b 491 858 426 973 466 922 l 488 858 b 344 909 438 900 388 909 b 28 445 166 909 28 741 b 377 -20 28 119 217 -20 b 726 562 566 -20 726 138 b 552 1083 726 777 673 961 l 699 1145 l 641 1213 l 482 1143 b 306 1213 434 1176 332 1213 b 287 1205 299 1213 294 1209 l 167 1119 b 163 1112 164 1118 163 1115 b 170 1106 163 1108 166 1106 b 299 1065 198 1106 246 1094 l 159 1005 l 217 940 "},"T":{"x_min":0.0625,"x_max":869.5,"ha":869,"o":"m 515 0 b 583 23 533 0 583 -6 b 507 580 583 48 507 223 b 605 973 507 708 520 973 b 786 858 705 973 762 858 b 869 1051 801 858 869 990 b 447 1176 869 1116 670 1176 b 58 1100 259 1176 72 1126 b 0 845 37 1061 0 888 b 19 812 0 806 7 812 b 315 972 43 812 216 972 b 343 905 350 972 343 947 b 282 347 343 854 282 656 b 369 0 282 -55 343 0 l 515 0 "},"š":{"x_min":54.171875,"x_max":663.890625,"ha":718,"o":"m 347 -20 b 663 262 513 -20 663 81 b 258 684 663 544 258 541 b 359 745 258 726 316 745 b 531 638 487 745 495 638 b 641 777 563 638 641 751 b 372 909 641 805 545 909 b 86 648 222 909 86 818 b 461 266 86 372 461 409 b 337 166 461 195 394 166 b 98 376 140 166 105 376 b 54 227 87 376 54 293 b 347 -20 54 65 200 -20 m 256 1208 b 227 1226 250 1213 240 1226 b 93 1172 188 1226 93 1179 b 111 1145 93 1161 102 1152 l 261 997 b 373 938 302 954 313 938 b 456 981 419 938 425 948 l 595 1130 b 626 1177 606 1141 626 1161 b 538 1226 626 1200 551 1226 b 479 1184 516 1226 494 1200 l 427 1129 b 381 1094 419 1119 395 1094 b 340 1126 369 1094 347 1119 l 256 1208 "},"℮":{"x_min":54.328125,"x_max":1352.9375,"ha":1408,"o":"m 1352 547 l 1352 562 b 702 1147 1352 886 1062 1147 b 54 562 344 1147 54 886 b 702 -19 54 241 344 -19 b 1215 206 911 -19 1100 69 l 1122 206 b 704 12 1020 88 872 12 b 307 186 548 12 408 80 b 293 222 298 195 293 208 l 293 540 b 301 547 293 545 296 547 l 1352 547 m 1114 588 b 1107 577 1114 584 1112 577 l 301 577 b 293 588 296 577 293 584 l 293 901 b 308 940 293 916 298 930 b 704 1112 411 1044 550 1112 b 1098 945 858 1112 996 1045 b 1114 908 1108 936 1114 922 l 1114 588 "},"Þ":{"x_min":106.9375,"x_max":865.28125,"ha":867,"o":"m 106 475 b 129 29 106 280 120 86 b 155 0 131 11 138 0 l 370 0 b 408 15 393 0 408 5 b 402 50 408 23 405 36 l 384 120 b 379 163 381 131 379 145 b 400 198 379 180 387 190 l 595 343 b 865 737 755 461 865 569 b 627 988 865 898 751 988 b 427 983 561 988 494 983 b 359 986 405 983 381 984 l 384 1119 b 387 1141 386 1127 387 1136 b 368 1155 387 1150 381 1155 l 172 1155 b 106 673 127 1155 106 984 l 106 475 m 333 595 b 331 673 331 626 331 650 b 509 811 331 755 366 811 b 654 691 590 811 654 781 b 369 398 654 570 405 398 b 341 454 348 398 344 416 l 333 595 "},"j":{"x_min":0,"x_max":355.5625,"ha":419,"o":"m 198 888 b 138 862 176 888 138 894 b 168 416 138 800 168 555 b 108 184 168 195 136 184 b 51 219 81 184 73 219 b 0 43 13 219 0 86 b 123 -20 0 -8 86 -20 b 355 341 326 -20 355 176 b 308 888 355 888 327 888 l 198 888 m 230 997 b 337 1088 286 997 337 1029 b 230 1184 337 1148 286 1184 b 123 1088 175 1184 123 1148 b 230 997 123 1029 175 997 "},"1":{"x_min":194.4375,"x_max":541.671875,"ha":806,"o":"m 293 313 b 333 -20 293 -29 308 -20 b 541 16 405 -20 541 -6 b 495 673 541 259 495 484 b 534 1091 495 895 534 1065 b 450 1147 534 1130 479 1147 b 194 1015 304 1147 194 1048 b 308 855 194 968 308 975 b 293 313 308 695 293 523 "},"›":{"x_min":69.4375,"x_max":427.78125,"ha":497,"o":"m 250 738 b 206 780 241 751 226 780 b 137 744 193 780 175 768 b 69 684 95 718 69 705 b 104 625 69 663 90 641 l 223 473 b 244 438 230 465 244 450 b 223 404 244 427 230 412 l 104 252 b 69 193 90 236 69 213 b 137 133 69 172 95 159 b 206 97 175 109 193 97 b 250 138 226 97 241 126 l 401 368 b 427 438 416 388 427 406 b 401 509 427 470 416 488 l 250 738 "},"ı":{"x_min":63.890625,"x_max":305.5625,"ha":369,"o":"m 231 0 b 305 36 263 0 305 -8 b 251 613 305 48 251 263 b 268 868 251 765 268 816 b 208 888 268 884 266 888 l 131 888 b 63 459 86 888 63 934 b 137 0 63 -29 69 0 l 231 0 "},"ℓ":{"x_min":29.171875,"x_max":737.5,"ha":758,"o":"m 655 297 b 479 159 612 227 551 159 b 361 319 411 159 362 215 l 361 405 b 636 947 530 586 636 766 b 429 1237 636 1111 573 1237 b 151 833 277 1237 151 1105 l 151 427 b 29 315 115 388 75 356 l 79 200 b 152 261 104 219 130 243 b 154 243 154 255 154 248 b 429 -16 165 108 238 -16 b 737 206 544 -16 658 38 l 655 297 m 361 816 b 440 1077 361 1023 401 1077 b 511 959 494 1077 511 1036 b 361 609 511 861 451 727 l 361 816 "},"ä":{"x_min":46.328125,"x_max":658.890625,"ha":722,"o":"m 460 272 b 375 162 460 204 457 162 b 233 286 301 162 233 208 b 401 440 233 370 320 440 b 460 333 468 440 460 381 l 460 272 m 46 254 b 404 -1 46 170 69 -1 b 658 30 528 -1 658 1 b 647 175 658 77 647 113 b 615 715 647 223 644 634 b 310 908 544 909 354 908 b 67 738 182 908 67 841 b 160 625 67 679 115 625 b 311 744 190 625 169 744 b 446 636 372 744 446 706 b 374 576 446 590 414 583 b 46 254 218 550 46 429 m 521 981 b 645 1093 588 981 645 1020 b 521 1204 645 1165 588 1204 b 397 1093 454 1204 397 1165 b 521 981 397 1020 454 981 m 203 981 b 326 1093 269 981 326 1020 b 203 1204 326 1165 270 1204 b 79 1093 136 1204 79 1165 b 203 981 79 1020 136 981 "},"<":{"x_min":73.609375,"x_max":733.328125,"ha":806,"o":"m 733 32 l 733 181 l 191 458 l 191 460 l 731 735 l 731 883 l 73 526 l 73 390 l 733 32 "},"£":{"x_min":-8.453125,"x_max":805.4375,"ha":806,"o":"m 541 694 b 388 679 509 694 435 679 b 305 816 342 679 305 695 b 434 969 305 905 374 969 b 594 869 548 969 552 869 b 740 977 620 869 740 949 b 437 1147 740 1019 645 1147 b 102 806 248 1147 102 1015 b 117 723 102 754 117 741 b 102 679 117 705 116 679 b 58 694 90 679 73 694 b -8 573 20 694 -8 591 b 49 530 -8 548 17 530 b 170 547 79 530 127 547 b 237 341 201 547 237 441 b 131 211 237 237 204 205 b 47 219 90 211 79 219 b 1 62 -7 219 1 161 b 69 -20 1 31 -8 -20 b 198 13 124 -20 161 -2 b 323 34 236 30 269 34 b 599 -20 427 34 458 -20 b 805 256 669 -20 805 42 b 734 455 805 379 758 455 b 588 211 704 455 752 205 b 436 236 522 211 497 236 b 381 220 416 236 399 226 b 424 370 415 267 424 308 b 395 530 424 479 395 486 b 411 547 395 540 401 547 b 519 530 449 547 484 530 b 597 656 563 530 597 634 b 541 694 597 679 573 694 "},"¹":{"x_min":88.890625,"x_max":347.21875,"ha":486,"o":"m 152 650 b 183 454 152 443 162 454 b 347 500 213 454 347 472 b 316 865 347 576 316 751 b 341 1116 316 995 341 1100 b 269 1147 341 1138 301 1147 b 88 1056 175 1147 88 1076 b 162 961 88 1027 162 1031 b 152 650 162 879 152 773 "},"t":{"x_min":18.46875,"x_max":482.40625,"ha":504,"o":"m 372 1091 b 182 1000 344 1091 189 1052 b 128 883 175 951 171 883 b 101 888 117 883 107 888 b 18 770 49 888 18 876 b 35 727 18 745 17 727 b 89 744 50 727 64 744 b 139 629 151 744 139 670 b 131 365 139 602 131 536 b 197 -20 131 288 144 -20 b 390 77 229 -20 390 56 b 312 531 390 101 312 162 b 389 744 312 655 312 744 b 453 731 414 744 442 731 b 482 804 482 731 482 784 b 428 888 482 851 481 888 b 375 881 410 888 393 881 b 347 923 354 881 347 898 b 389 1062 347 940 389 1025 b 372 1091 389 1088 382 1091 "},"¬":{"x_min":70.828125,"x_max":734.71875,"ha":806,"o":"m 734 219 l 734 668 l 70 668 l 70 538 l 606 538 l 606 219 l 734 219 "},"ù":{"x_min":64.109375,"x_max":708.546875,"ha":772,"o":"m 519 888 b 472 872 504 888 472 890 b 521 469 472 850 521 636 b 369 156 521 170 415 156 b 251 445 250 156 251 368 b 315 868 251 708 315 847 b 259 888 315 895 278 888 l 132 888 b 64 448 73 888 64 472 b 286 -20 64 51 171 -20 b 389 11 332 -20 364 -4 b 458 56 414 27 446 56 b 572 -20 537 56 426 -20 b 708 465 672 -20 708 -44 b 648 888 708 597 707 888 l 519 888 m 369 1195 b 279 1240 341 1247 341 1240 b 189 1208 255 1240 189 1250 b 473 952 189 1175 389 944 b 491 962 482 952 491 954 b 475 998 491 972 479 991 l 369 1195 "},"W":{"x_min":22.21875,"x_max":1159.71875,"ha":1182,"o":"m 954 1155 b 925 1134 941 1155 925 1156 b 972 818 925 1116 972 965 b 822 340 972 584 875 340 b 701 872 780 340 701 562 b 727 1131 701 1026 727 1108 b 693 1155 727 1152 711 1155 l 512 1155 b 488 1137 497 1155 488 1154 b 513 868 488 1119 513 1052 b 356 340 513 537 400 340 b 241 841 325 340 241 500 b 281 1136 241 1025 281 1122 b 250 1155 281 1154 263 1155 l 77 1155 b 22 795 48 1155 22 1176 b 320 -33 22 319 294 -33 b 569 333 381 -33 523 333 b 818 -33 615 333 756 -33 b 1159 923 844 -33 1159 388 b 1081 1155 1159 1176 1118 1155 l 954 1155 "},"ï":{"x_min":-97.21875,"x_max":468.0625,"ha":369,"o":"m 231 0 b 305 36 263 0 305 -8 b 251 613 305 48 251 263 b 268 868 251 765 268 816 b 208 888 268 884 266 888 l 131 888 b 63 459 86 888 63 934 b 137 0 63 -29 69 0 l 231 0 m 344 983 b 468 1094 411 983 468 1022 b 344 1205 468 1166 411 1205 b 220 1094 277 1205 220 1166 b 344 983 220 1022 277 983 m 26 983 b 150 1094 93 983 150 1022 b 26 1205 150 1166 93 1205 b -97 1094 -40 1205 -97 1166 b 26 983 -97 1022 -40 983 "},">":{"x_min":73.609375,"x_max":733.328125,"ha":806,"o":"m 73 883 l 73 735 l 615 460 l 615 456 l 75 181 l 75 32 l 733 390 l 733 526 l 73 883 "},"v":{"x_min":29.171875,"x_max":687.5,"ha":717,"o":"m 537 888 b 495 859 509 888 495 891 b 504 729 495 816 504 777 b 365 268 504 458 413 268 b 231 744 333 268 231 402 b 238 866 231 805 238 834 b 179 888 238 895 198 888 l 72 888 b 29 845 34 888 29 886 b 340 -20 29 212 308 -20 b 687 809 386 -20 687 226 b 629 888 687 888 677 888 l 537 888 "},"û":{"x_min":64.109375,"x_max":708.546875,"ha":772,"o":"m 519 888 b 472 872 504 888 472 890 b 521 469 472 850 521 636 b 369 156 521 170 415 156 b 251 445 250 156 251 368 b 315 868 251 708 315 847 b 259 888 315 895 278 888 l 132 888 b 64 448 73 888 64 472 b 286 -20 64 51 171 -20 b 389 11 332 -20 364 -4 b 458 56 414 27 446 56 b 572 -20 537 56 426 -20 b 708 465 672 -20 708 -44 b 648 888 708 597 707 888 l 519 888 m 484 1188 b 372 1247 443 1231 432 1247 b 289 1204 326 1247 321 1237 l 150 1055 b 119 1008 139 1044 119 1025 b 207 959 119 986 194 959 b 266 1001 229 959 251 986 l 318 1056 b 364 1091 326 1066 350 1091 b 405 1059 376 1091 398 1066 l 489 977 b 518 959 496 972 505 959 b 653 1013 557 959 653 1006 b 634 1040 653 1025 643 1033 l 484 1188 "},"Ò":{"x_min":34.71875,"x_max":954.171875,"ha":989,"o":"m 563 -20 b 954 420 844 -20 954 180 b 494 1176 954 777 754 1176 b 34 420 234 1176 34 777 b 425 -20 34 180 144 -20 l 563 -20 m 494 226 b 259 451 347 226 259 288 b 494 951 259 758 401 951 b 729 451 587 951 729 758 b 494 226 729 288 641 226 m 436 1463 b 345 1508 408 1515 408 1508 b 255 1476 322 1508 255 1518 b 540 1220 255 1443 455 1212 b 558 1230 548 1220 558 1222 b 541 1266 558 1240 545 1259 l 436 1463 "},"&":{"x_min":69.4375,"x_max":1261.109375,"ha":1331,"o":"m 409 455 b 558 255 444 455 558 277 b 420 181 558 216 470 181 b 294 297 362 181 294 227 b 409 455 294 363 361 455 m 526 780 b 438 918 479 780 438 877 b 540 1012 438 979 480 1012 b 636 922 600 1012 636 981 b 526 780 636 868 562 780 m 370 -20 b 681 79 569 -20 618 79 b 904 -20 734 79 777 -20 b 1138 263 1052 -20 1138 113 b 1130 287 1138 275 1138 287 b 972 226 1116 287 1066 226 b 861 283 934 226 861 252 b 1095 481 861 313 984 481 b 1202 441 1147 481 1173 441 b 1261 530 1234 441 1261 498 b 1115 659 1261 611 1193 659 b 726 448 854 659 770 448 b 623 593 684 455 623 555 b 838 941 623 672 838 736 b 559 1176 838 1020 770 1176 b 213 898 263 1176 213 986 b 304 644 213 772 304 687 b 69 248 304 583 69 506 b 370 -20 69 91 173 -20 "},"˝":{"x_min":86.109375,"x_max":701.390625,"ha":788,"o":"m 415 998 b 398 962 411 991 398 972 b 416 952 398 954 408 952 b 701 1208 501 944 701 1175 b 611 1240 701 1250 634 1240 b 520 1195 548 1240 548 1247 l 415 998 m 102 998 b 86 962 98 991 86 972 b 104 952 86 954 95 952 b 388 1208 188 944 388 1175 b 298 1240 388 1250 322 1240 b 208 1195 236 1240 236 1247 l 102 998 "},"Ð":{"x_min":-16.671875,"x_max":895.828125,"ha":931,"o":"m -16 531 b 4 508 -16 516 -6 508 l 69 508 l 69 494 b 147 0 69 111 77 0 l 505 0 b 895 441 786 0 895 201 b 401 1155 895 962 577 1155 l 161 1155 b 70 658 120 1155 79 1091 l 4 658 b -16 634 -6 658 -16 650 l -16 531 m 286 725 b 402 991 286 888 336 991 b 670 498 493 991 670 841 b 455 177 670 248 530 177 b 286 508 379 177 286 212 l 504 508 b 534 529 526 508 534 515 b 526 556 534 537 531 545 l 495 626 b 454 658 483 651 472 658 l 286 658 l 286 725 "},"I":{"x_min":86.109375,"x_max":384.71875,"ha":454,"o":"m 331 0 l 359 0 b 380 15 372 0 380 1 b 311 619 380 34 311 263 b 384 1133 311 887 384 1119 b 331 1155 384 1159 350 1155 l 181 1155 b 86 494 158 1155 86 1180 b 162 0 86 -26 127 0 l 331 0 "},"ˉ":{"x_min":159.71875,"x_max":534.71875,"ha":694,"o":"m 456 983 b 534 1122 511 983 534 1108 b 470 1147 534 1154 493 1147 l 237 1147 b 159 1008 183 1147 159 1022 b 223 983 159 976 201 983 l 456 983 "},"G":{"x_min":35.328125,"x_max":870.046875,"ha":915,"o":"m 517 -20 b 870 241 689 -20 870 59 b 810 622 870 283 838 622 b 554 518 793 622 554 536 b 664 359 554 481 664 472 b 485 226 664 262 571 226 b 260 537 303 226 260 386 b 556 979 260 730 336 979 b 713 848 732 979 656 848 b 856 975 800 848 856 894 b 549 1176 856 1125 670 1176 b 35 511 217 1176 35 838 b 517 -20 35 201 195 -20 "},"`":{"x_min":69.4375,"x_max":372.21875,"ha":535,"o":"m 250 1195 b 159 1240 222 1247 222 1240 b 69 1208 136 1240 69 1250 b 354 952 69 1175 269 944 b 372 962 362 952 372 954 b 355 998 372 972 359 991 l 250 1195 "},"·":{"x_min":45.828125,"x_max":356.9375,"ha":403,"o":"m 200 313 b 356 466 286 313 356 380 b 198 619 356 552 286 619 b 45 468 115 619 45 551 b 200 313 45 383 113 313 "},"r":{"x_min":63.8125,"x_max":591.671875,"ha":592,"o":"m 252 0 b 300 22 268 0 298 0 b 252 440 300 47 252 163 b 377 711 252 523 261 711 b 470 618 473 711 454 618 b 591 773 512 618 591 676 b 462 908 591 848 533 908 b 362 866 425 908 391 886 b 288 822 333 844 309 822 b 255 869 261 822 258 848 b 208 888 254 895 229 888 l 93 888 b 65 416 54 887 65 801 b 141 0 65 -43 90 0 l 252 0 "},"¿":{"x_min":69.4375,"x_max":597.21875,"ha":667,"o":"m 483 731 b 418 775 483 783 463 775 b 344 722 356 775 344 783 b 69 305 344 615 69 556 b 363 -20 69 137 187 -20 b 597 119 491 -20 597 75 b 488 243 597 136 504 243 b 368 156 466 243 447 156 b 272 276 302 156 272 219 b 483 631 272 448 483 427 l 483 731 m 411 870 b 568 1023 497 870 568 937 b 409 1176 568 1109 497 1176 b 256 1025 326 1176 256 1108 b 411 870 256 940 325 870 "},"ý":{"x_min":36.109375,"x_max":676.75,"ha":713,"o":"m 36 31 b 69 -20 36 0 37 -20 b 676 780 375 -20 688 373 b 654 888 676 840 680 884 l 530 888 b 480 868 515 888 480 893 b 495 718 480 845 495 787 b 402 444 495 611 458 444 b 238 759 375 444 238 597 b 251 863 238 801 251 844 b 202 888 251 893 220 888 l 88 888 b 36 823 34 888 36 886 b 277 280 36 437 277 338 b 76 211 277 262 236 211 b 36 154 38 211 36 170 l 36 31 m 337 998 b 320 962 333 991 320 972 b 338 952 320 954 330 952 b 623 1208 423 944 623 1175 b 533 1240 623 1250 556 1240 b 443 1195 470 1240 470 1247 l 337 998 "},"x":{"x_min":35.640625,"x_max":671.75,"ha":708,"o":"m 618 0 b 671 72 670 0 671 0 b 487 480 671 355 487 416 b 645 841 487 516 645 618 b 587 888 645 890 625 888 l 517 888 b 457 825 457 888 468 888 b 366 584 445 645 385 584 b 255 859 325 584 255 697 b 210 888 255 893 237 888 l 109 888 b 52 836 62 888 52 890 b 196 440 52 575 196 491 b 35 44 196 409 35 277 b 82 0 35 -5 43 0 l 168 0 b 223 63 223 0 223 5 b 330 333 223 220 293 333 b 468 29 367 333 468 211 b 514 0 468 -4 485 0 l 618 0 "},"è":{"x_min":29.171875,"x_max":683.328125,"ha":729,"o":"m 380 -20 b 683 256 547 -20 683 80 b 658 340 683 268 679 340 b 411 166 638 340 638 166 b 236 279 341 166 236 213 b 683 659 236 423 683 361 b 401 909 683 823 554 909 b 29 406 215 909 29 743 b 380 -20 29 184 131 -20 m 394 745 b 511 640 447 745 511 708 b 241 513 511 569 258 513 b 216 544 223 513 216 529 b 394 745 216 625 281 745 m 388 1195 b 298 1240 361 1247 361 1240 b 208 1208 275 1240 208 1250 b 493 952 208 1175 408 944 b 511 962 501 952 511 954 b 494 998 511 972 498 991 l 388 1195 "},"º":{"x_min":13.890625,"x_max":541.671875,"ha":556,"o":"m 277 604 b 541 898 409 604 541 688 b 277 1184 541 1031 462 1184 b 13 898 93 1184 13 1031 b 277 604 13 688 145 604 m 277 781 b 177 916 201 781 177 850 b 277 1052 177 983 202 1052 b 377 916 354 1052 377 983 b 277 781 377 850 355 781 "},"Ø":{"x_min":-21.9375,"x_max":990.109375,"ha":989,"o":"m 164 63 b 425 -21 293 -28 393 -21 l 563 -21 b 954 420 844 -21 954 180 b 840 901 954 603 904 777 l 960 1053 b 990 1107 973 1068 990 1084 b 941 1154 990 1135 966 1154 b 879 1106 910 1154 892 1124 l 787 992 b 494 1177 701 1117 595 1177 b 35 420 234 1177 35 778 b 98 146 35 320 54 231 l -2 20 b -21 -25 -10 8 -21 -1 b 33 -73 -21 -54 4 -73 b 79 -39 54 -73 69 -51 l 164 63 m 691 717 b 729 451 717 627 729 555 b 494 226 729 288 641 226 b 330 267 443 226 370 235 l 691 717 m 269 346 b 259 451 264 392 259 427 b 494 951 257 757 401 951 b 648 821 558 951 616 877 l 269 346 "},"∞":{"x_min":72.21875,"x_max":1119.453125,"ha":1192,"o":"m 1119 465 b 877 726 1119 623 1011 725 b 602 559 737 726 661 627 b 330 726 523 665 443 726 b 72 455 183 726 72 616 b 316 188 72 294 188 188 b 598 359 440 188 520 259 b 869 188 698 220 781 188 b 1119 463 997 188 1119 290 l 1119 465 m 331 306 b 191 454 254 306 191 373 b 327 609 191 544 241 609 b 534 450 423 609 472 536 b 334 306 475 376 416 306 l 331 306 m 865 609 b 1000 454 947 609 1000 541 b 872 306 1000 390 954 306 b 662 461 795 306 751 344 b 863 609 709 516 773 609 l 865 609 "},"μ":{"x_min":64.109375,"x_max":708.5625,"ha":772,"o":"m 519 888 b 472 872 504 888 472 890 b 521 616 472 850 522 747 b 369 413 518 433 415 413 b 251 586 323 413 251 445 b 315 868 251 722 315 847 b 259 888 315 895 278 888 l 132 888 b 64 565 73 888 64 681 l 64 226 b 126 0 64 -12 83 0 l 240 0 b 284 19 255 0 284 -2 b 258 159 284 34 258 111 b 391 226 258 229 305 226 b 482 280 436 226 466 280 b 565 188 543 280 439 188 b 708 466 665 188 708 165 b 648 888 708 640 707 888 l 519 888 "},"÷":{"x_min":70.828125,"x_max":734.71875,"ha":806,"o":"m 406 641 b 501 748 459 641 501 690 b 406 855 501 804 459 855 b 311 748 358 855 311 804 b 404 641 311 690 358 641 l 406 641 m 734 391 l 734 522 l 70 522 l 70 391 l 734 391 m 405 272 b 308 166 350 272 308 225 b 405 58 308 109 350 58 b 500 166 452 58 500 109 b 406 272 500 225 452 272 l 405 272 "},"h":{"x_min":69.4375,"x_max":693.0625,"ha":756,"o":"m 148 1184 b 69 569 72 1184 69 680 b 109 0 69 -47 69 0 l 247 0 b 287 22 261 0 287 0 b 256 430 287 62 256 152 b 401 745 256 529 259 745 b 505 487 469 745 505 702 b 436 18 505 302 436 27 b 486 0 436 -4 473 0 l 630 0 b 693 484 673 0 693 351 b 473 909 693 819 600 909 b 356 876 427 909 388 893 b 293 845 326 858 304 845 b 269 888 269 845 269 872 b 322 1155 269 1000 322 1136 b 300 1184 322 1169 312 1184 l 148 1184 "},".":{"x_min":45.828125,"x_max":356.9375,"ha":403,"o":"m 200 -20 b 356 131 286 -20 356 45 b 198 284 356 218 286 284 b 45 133 115 284 45 216 b 200 -20 45 48 113 -20 "},";":{"x_min":34.71875,"x_max":368.0625,"ha":403,"o":"m 62 175 b 34 148 58 172 34 155 b 143 23 34 134 143 140 b 106 -81 143 -33 106 -76 b 118 -88 106 -86 113 -88 b 368 137 198 -88 368 -22 b 230 294 368 209 308 294 b 177 268 209 294 193 279 l 62 175 m 200 604 b 356 756 286 604 356 670 b 198 909 356 843 286 909 b 45 758 115 909 45 841 b 200 604 45 673 113 604 "},"f":{"x_min":11.34375,"x_max":486.390625,"ha":497,"o":"m 322 0 b 366 25 347 0 366 -5 b 315 595 366 43 315 412 b 389 744 315 650 312 744 b 453 731 414 744 441 731 b 482 804 482 731 482 784 b 428 888 482 851 480 888 b 375 881 410 888 393 881 b 340 918 354 881 340 898 b 405 1006 340 950 366 1006 b 446 994 421 1006 426 994 b 486 1151 469 994 486 1130 b 361 1184 486 1191 415 1184 b 176 1044 289 1184 203 1130 b 94 888 157 981 157 888 b 11 770 41 888 11 876 b 28 727 11 745 9 727 b 82 744 43 727 57 744 b 132 623 144 744 132 665 b 128 415 132 554 128 484 b 173 0 128 -41 153 0 l 322 0 "},"“":{"x_min":69.4375,"x_max":784.71875,"ha":854,"o":"m 756 912 b 784 938 761 915 784 931 b 676 1063 784 952 676 947 b 712 1169 676 1120 712 1163 b 701 1176 712 1173 705 1176 b 451 950 620 1176 451 1109 b 588 793 451 877 511 793 b 641 819 609 793 626 808 l 756 912 m 375 912 b 402 938 379 915 402 931 b 294 1063 402 952 294 947 b 330 1169 294 1120 330 1163 b 319 1176 330 1173 323 1176 b 69 950 238 1176 69 1109 b 206 793 69 877 129 793 b 259 819 227 793 244 808 l 375 912 "},"A":{"x_min":45.828125,"x_max":923.609375,"ha":969,"o":"m 822 0 b 923 333 863 0 923 -37 b 519 1176 923 977 565 1176 b 45 305 458 1176 45 900 b 136 0 45 125 65 0 l 334 0 b 361 9 352 0 361 1 b 270 258 361 30 270 148 b 598 438 270 416 472 438 b 720 352 661 438 720 415 b 613 16 720 194 613 55 b 666 0 613 -4 654 0 l 822 0 m 525 938 b 680 672 577 938 680 758 b 609 626 680 633 658 626 b 327 590 487 626 352 590 b 301 616 311 590 301 600 b 525 938 301 718 450 938 "},"6":{"x_min":45.828125,"x_max":759.71875,"ha":806,"o":"m 408 211 b 248 394 315 211 248 306 b 422 562 248 488 325 562 b 572 391 522 562 572 480 b 408 211 572 295 512 211 m 533 1147 b 45 509 240 1147 45 909 b 406 -20 45 141 206 -20 b 759 388 554 -20 759 97 b 481 740 759 548 662 740 b 281 679 379 740 305 679 b 258 709 268 679 258 697 b 494 959 258 805 373 959 b 622 912 570 959 595 912 b 701 1086 643 912 701 1075 b 533 1147 701 1134 562 1147 "},"‘":{"x_min":69.4375,"x_max":402.78125,"ha":472,"o":"m 375 912 b 402 938 379 915 402 931 b 294 1063 402 952 294 947 b 330 1169 294 1120 330 1163 b 319 1176 330 1173 323 1176 b 69 950 238 1176 69 1109 b 206 793 69 877 129 793 b 259 819 227 793 244 808 l 375 912 "},"π":{"x_min":5.5625,"x_max":876.390625,"ha":894,"o":"m 862 656 l 876 850 l 256 850 b 5 793 127 850 44 825 l 29 643 b 162 656 59 651 98 656 b 75 0 159 495 123 201 l 281 0 b 373 656 336 187 366 501 l 550 656 l 550 223 b 576 0 550 119 556 38 l 783 0 b 765 227 772 51 765 119 l 765 656 l 862 656 "},"O":{"x_min":34.71875,"x_max":954.171875,"ha":989,"o":"m 563 -20 b 954 420 844 -20 954 180 b 494 1176 954 777 754 1176 b 34 420 234 1176 34 777 b 425 -20 34 180 144 -20 l 563 -20 m 494 226 b 259 451 347 226 259 288 b 494 951 259 758 401 951 b 729 451 587 951 729 758 b 494 226 729 288 641 226 "},"n":{"x_min":63.890625,"x_max":702.78125,"ha":767,"o":"m 612 0 b 702 518 659 0 702 -27 b 502 888 702 883 541 888 b 326 831 413 888 350 831 b 305 858 312 831 305 844 b 318 908 305 877 318 894 b 219 933 318 940 268 933 b 63 343 112 933 63 972 b 136 0 63 -23 84 0 l 254 0 b 291 18 268 0 291 -1 b 251 415 291 34 251 248 b 412 725 251 690 359 725 b 515 502 506 725 515 601 b 444 22 515 220 444 36 b 493 0 444 -4 475 0 l 612 0 "},"3":{"x_min":63.890625,"x_max":741.671875,"ha":806,"o":"m 180 1126 b 111 1095 154 1126 111 1133 b 161 898 111 1065 140 898 b 412 948 187 898 302 948 b 479 925 437 948 479 950 b 215 598 479 883 215 652 b 263 569 215 576 245 569 b 538 386 419 569 538 513 b 394 226 538 309 473 226 b 208 325 277 226 237 325 b 63 136 194 325 63 147 b 377 -20 63 118 176 -20 b 741 375 602 -20 741 158 b 511 698 741 644 511 662 b 720 1086 511 729 720 858 b 638 1126 720 1136 675 1126 l 180 1126 "},"9":{"x_min":45.828125,"x_max":759.71875,"ha":806,"o":"m 397 959 b 556 776 490 959 556 863 b 383 608 556 681 480 608 b 233 779 283 608 233 690 b 397 959 233 875 293 959 m 272 -20 b 759 616 565 -20 759 216 b 398 1147 759 984 598 1147 b 45 737 251 1147 45 1029 b 323 430 45 577 143 430 b 523 491 426 430 500 491 b 547 461 537 491 547 473 b 311 211 547 365 431 211 b 183 258 234 211 209 258 b 104 40 162 258 104 51 b 272 -20 104 -8 243 -20 "},"l":{"x_min":76.203125,"x_max":322.21875,"ha":357,"o":"m 265 0 b 316 16 280 0 316 -6 b 263 604 316 34 263 222 b 322 1158 263 950 322 1150 b 265 1184 322 1188 280 1184 l 133 1184 b 76 497 70 1184 76 562 b 119 0 76 465 70 0 l 265 0 "},"¤":{"x_min":83.21875,"x_max":744.203125,"ha":829,"o":"m 744 231 l 637 347 b 708 559 680 398 708 481 b 638 772 708 638 683 722 l 744 883 l 666 960 l 573 845 b 413 901 526 888 473 901 b 256 844 359 901 304 887 l 165 958 l 84 883 l 188 772 b 122 559 145 722 122 638 b 187 345 122 470 151 395 l 83 231 l 163 158 l 256 275 b 413 220 305 230 359 220 b 569 273 466 220 522 234 l 666 158 l 744 231 m 415 774 b 578 559 509 774 578 684 b 415 347 578 436 509 347 b 249 559 319 347 249 434 b 412 774 249 684 320 774 l 415 774 "},"∂":{"x_min":56.9375,"x_max":784.71875,"ha":858,"o":"m 156 1012 b 343 1088 197 1048 258 1088 b 575 738 488 1088 575 908 b 573 691 575 729 575 701 l 572 691 b 376 797 551 727 483 797 b 56 369 202 797 56 638 b 365 -12 56 191 159 -12 b 784 663 631 -12 784 243 b 373 1275 784 1079 588 1275 b 100 1184 233 1275 147 1222 l 156 1012 m 387 176 b 269 356 313 176 269 256 b 418 616 269 488 326 616 b 556 505 497 616 544 547 b 388 176 543 361 487 176 l 387 176 "},"4":{"x_min":29.171875,"x_max":781.953125,"ha":806,"o":"m 598 13 b 593 193 598 91 593 130 b 661 331 593 319 612 331 b 763 318 694 331 737 318 b 781 372 779 318 781 333 b 729 529 781 548 779 529 b 620 645 640 529 620 536 b 665 895 620 779 665 883 b 651 909 665 902 659 909 b 431 569 605 909 487 811 b 275 484 418 506 305 484 b 244 505 251 484 244 488 b 640 1100 244 745 640 1075 b 591 1126 640 1126 602 1126 l 438 1126 b 29 408 356 1126 29 666 b 98 275 29 344 34 275 b 355 320 133 275 258 320 b 405 286 380 320 405 316 b 381 31 405 191 381 115 b 423 -20 380 -9 390 -20 b 598 13 479 -20 598 -9 "},"p":{"x_min":63.890625,"x_max":711.109375,"ha":729,"o":"m 315 359 b 251 463 252 359 251 415 b 377 745 251 740 304 745 b 538 593 465 745 538 683 b 315 359 538 477 438 359 m 240 0 b 284 19 255 0 284 -2 b 258 243 284 34 258 145 b 268 293 258 268 254 293 b 318 241 277 293 295 266 b 391 181 340 215 366 181 b 711 616 498 181 711 400 b 322 909 711 763 633 909 b 63 634 86 909 63 930 l 63 226 b 126 0 63 -12 83 0 l 240 0 "},"‡":{"x_min":56.9375,"x_max":750,"ha":808,"o":"m 300 1168 l 311 847 l 56 861 l 56 665 l 311 680 l 311 400 l 56 415 l 56 220 l 309 234 l 300 -84 l 500 -84 l 487 234 l 750 220 l 750 415 l 487 400 l 487 680 l 750 665 l 750 861 l 487 847 l 500 1168 l 300 1168 "},"à":{"x_min":46.328125,"x_max":658.890625,"ha":722,"o":"m 460 272 b 375 162 460 204 457 162 b 233 286 301 162 233 208 b 401 440 233 370 320 440 b 460 333 468 440 460 381 l 460 272 m 46 254 b 404 -1 46 170 69 -1 b 658 30 528 -1 658 1 b 647 175 658 77 647 113 b 615 715 647 223 644 634 b 310 908 544 909 354 908 b 67 738 182 908 67 841 b 160 625 67 679 115 625 b 311 744 190 625 169 744 b 446 636 372 744 446 706 b 374 576 446 590 414 583 b 46 254 218 550 46 429 m 344 1194 b 254 1238 317 1245 317 1238 b 164 1206 231 1238 164 1248 b 449 951 164 1173 364 943 b 467 961 457 951 467 952 b 450 997 467 970 454 990 l 344 1194 "},"Ü":{"x_min":45.828125,"x_max":888.890625,"ha":935,"o":"m 670 1155 b 618 1137 658 1155 618 1159 b 686 625 618 1112 686 986 b 466 226 686 244 536 226 b 270 638 384 226 270 323 b 340 1137 270 958 340 1105 b 309 1155 340 1155 323 1155 l 116 1155 b 45 595 98 1155 45 1040 b 466 -20 45 180 205 -20 b 888 633 763 -20 888 225 b 806 1155 888 1133 834 1155 l 670 1155 m 626 1251 b 750 1362 693 1251 750 1290 b 626 1473 750 1434 693 1473 b 502 1362 559 1473 502 1434 b 626 1251 502 1290 559 1251 m 308 1251 b 431 1362 375 1251 431 1290 b 308 1473 431 1434 375 1473 b 184 1362 241 1473 184 1434 b 308 1251 184 1290 241 1251 "},"ó":{"x_min":29.171875,"x_max":726.390625,"ha":756,"o":"m 377 -20 b 726 445 537 -20 726 119 b 377 909 726 669 619 909 b 29 445 136 909 29 669 b 377 -20 29 119 218 -20 m 377 211 b 201 480 237 211 201 369 b 377 745 201 590 240 745 b 554 480 515 745 554 590 b 377 211 554 369 518 211 m 290 998 b 273 962 286 991 273 972 b 291 952 273 954 283 952 b 576 1208 376 944 576 1175 b 486 1240 576 1250 509 1240 b 395 1195 423 1240 423 1247 l 290 998 "},"√":{"x_min":49,"x_max":898,"ha":888,"o":"m 898 1360 l 750 1360 l 510 214 b 486 46 499 148 492 83 l 483 48 b 454 201 478 85 465 143 l 322 668 l 49 557 l 82 432 l 192 475 l 400 -215 l 570 -215 l 898 1360 "}}}
